<svg version="1.1" class="highcharts-root" style="font-family:&quot;Lucida Grande&quot;, &quot;Lucida Sans Unicode&quot;, Arial, Helvetica, sans-serif;font-size:12px;" xmlns="http://www.w3.org/2000/svg" width="554" height="320" viewBox="0 0 554 320"><desc>Created with Highcharts 6.2.0</desc><defs><clipPath id="highcharts-9z2rcof-927"><rect x="0" y="0" width="485" height="274" fill="none"></rect></clipPath></defs><rect fill="#ffffff" class="highcharts-background" x="0" y="0" width="554" height="320" rx="0" ry="0"></rect><rect fill="none" class="highcharts-plot-background" x="59" y="10" width="485" height="274"></rect><g class="highcharts-grid highcharts-xaxis-grid " data-z-index="1"><path fill="none" data-z-index="1" class="highcharts-grid-line" d="M 101.5 10 L 101.5 284" opacity="1"></path><path fill="none" data-z-index="1" class="highcharts-grid-line" d="M 180.5 10 L 180.5 284" opacity="1"></path><path fill="none" data-z-index="1" class="highcharts-grid-line" d="M 259.5 10 L 259.5 284" opacity="1"></path><path fill="none" data-z-index="1" class="highcharts-grid-line" d="M 339.5 10 L 339.5 284" opacity="1"></path><path fill="none" data-z-index="1" class="highcharts-grid-line" d="M 418.5 10 L 418.5 284" opacity="1"></path><path fill="none" data-z-index="1" class="highcharts-grid-line" d="M 497.5 10 L 497.5 284" opacity="1"></path></g><g class="highcharts-grid highcharts-yaxis-grid " data-z-index="1"><path fill="none" stroke="transparent" stroke-width="1" data-z-index="1" class="highcharts-grid-line" d="M 59 284.5 L 544 284.5" opacity="1"></path><path fill="none" stroke="transparent" stroke-width="1" data-z-index="1" class="highcharts-grid-line" d="M 59 238.5 L 544 238.5" opacity="1"></path><path fill="none" stroke="transparent" stroke-width="1" data-z-index="1" class="highcharts-grid-line" d="M 59 193.5 L 544 193.5" opacity="1"></path><path fill="none" stroke="transparent" stroke-width="1" data-z-index="1" class="highcharts-grid-line" d="M 59 147.5 L 544 147.5" opacity="1"></path><path fill="none" stroke="transparent" stroke-width="1" data-z-index="1" class="highcharts-grid-line" d="M 59 101.5 L 544 101.5" opacity="1"></path><path fill="none" stroke="transparent" stroke-width="1" data-z-index="1" class="highcharts-grid-line" d="M 59 56.5 L 544 56.5" opacity="1"></path><path fill="none" stroke="transparent" stroke-width="1" data-z-index="1" class="highcharts-grid-line" d="M 59 9.5 L 544 9.5" opacity="1"></path></g><rect fill="none" class="highcharts-plot-border" data-z-index="1" x="59" y="10" width="485" height="274"></rect><g class="highcharts-axis highcharts-xaxis " data-z-index="2"><path fill="none" class="highcharts-tick" stroke="transparent" stroke-width="1" d="M 101.5 284 L 101.5 294" opacity="1"></path><path fill="none" class="highcharts-tick" stroke="transparent" stroke-width="1" d="M 180.5 284 L 180.5 294" opacity="1"></path><path fill="none" class="highcharts-tick" stroke="transparent" stroke-width="1" d="M 259.5 284 L 259.5 294" opacity="1"></path><path fill="none" class="highcharts-tick" stroke="transparent" stroke-width="1" d="M 339.5 284 L 339.5 294" opacity="1"></path><path fill="none" class="highcharts-tick" stroke="transparent" stroke-width="1" d="M 418.5 284 L 418.5 294" opacity="1"></path><path fill="none" class="highcharts-tick" stroke="transparent" stroke-width="1" d="M 497.5 284 L 497.5 294" opacity="1"></path><path fill="none" class="highcharts-axis-line" data-z-index="7" d="M 59 284 L 544 284"></path></g><g class="highcharts-axis highcharts-yaxis " data-z-index="2"><path fill="none" class="highcharts-axis-line" data-z-index="7" d="M 59 10 L 59 284"></path></g><g class="highcharts-series-group" data-z-index="3"><g data-z-index="0.1" class="highcharts-series highcharts-series-0 highcharts-area-series " transform="translate(59,10) scale(1 1)" clip-path="url(#highcharts-9z2rcof-927)"><path fill="transparent" d="M 4.7549019607843 168.22479616100696 L 6.4070951876778 161.42262901595984 L 8.0592884145713 151.5864843391132 L 9.7114816414648 134.01548304298666 L 11.363674868358 135.06868247660023 L 13.015868095252 144.3737344421798 L 14.668061322145 155.73863107482657 L 16.320254549039 163.57353089742648 L 17.972447775932 171.99313923252015 L 19.624641002826 195.43771644942646 L 21.276834229719 213.54960346615968 L 22.929027456613 238.0228861588534 L 24.581220683506 223.09103179486652 L 26.2334139104 235.46096303507997 L 27.885607137293 235.4709688200333 L 29.537800364187 221.75125211796694 L 31.18999359108 217.3035715395869 L 32.842186817973 227.02156059931343 L 34.494380044867 218.47854244227977 L 36.14657327176 234.6761608823469 L 37.798766498654 249.01749893302645 L 39.450959725547 246.98063186851357 L 41.103152952441 249.81666170067308 L 42.755346179334 214.2097719786933 L 44.407539406228 217.28734650993994 L 46.059732633121 218.24783001078663 L 47.711925860015 237.3175131436731 L 49.364119086908 233.55786823777984 L 51.016312313802 247.7662849127197 L 52.668505540695 248.63519149514673 L 54.320698767589 231.42586463316667 L 55.972891994482 230.52185741499983 L 57.625085221376 220.44208821009983 L 59.277278448269 220.3144362206068 L 60.929471675163 206.53284979702664 L 62.581664902056 205.0929158700865 L 64.23385812895 201.31934659838015 L 65.886051355843 200.45722236626645 L 67.538244582737 191.47962386056642 L 69.19043780963 192.27696206038655 L 70.842631036524 193.5803888777069 L 72.494824263417 166.18766294933354 L 74.147017490311 168.04742815657352 L 75.799210717204 167.68679981423978 L 77.451403944098 180.56756472814652 L 79.103597170991 180.90033532060022 L 80.755790397884 173.06381816276635 L 82.407983624778 191.28581635298633 L 84.060176851671 172.27411106935978 L 85.712370078565 147.05317670390667 L 87.364563305458 154.30461205073345 L 89.016756532352 146.19340768993996 L 90.668949759245 145.69757185195334 L 92.321142986139 151.8090158110402 L 93.973336213032 158.76248006236642 L 95.625529439926 157.22192002176695 L 97.277722666819 152.74268888956024 L 98.929915893713 139.79926799926642 L 100.58210912061 152.75650108799346 L 102.2343023475 150.74560610901312 L 103.88649557439 137.91863322947972 L 105.53868880129 156.8612514215265 L 107.19088202818 148.56449563347314 L 108.84307525507 136.07407514553995 L 110.49526848197 124.30099154667988 L 112.14746170886 126.64855998598671 L 113.79965493575 131.42054322518032 L 115.45184816265 121.89745152447361 L 117.10404138954 128.1677843206269 L 118.75623461643 128.7912567602665 L 120.40842784333 138.41505269203324 L 122.06062107022 136.71410724098024 L 123.71281429711 133.86572543858674 L 125.36500752401 131.7856460432265 L 127.0172007509 126.16134451223343 L 128.6693939778 112.5709121510065 L 130.32158720469 116.73437956388008 L 131.97378043158 117.33850105035316 L 133.62597365848 115.6737999274797 L 135.27816688537 122.35160884251351 L 136.93036011226 124.72906947165347 L 138.58255333916 120.62685169180662 L 140.23474656605 114.44561520347972 L 141.88693979294 119.57992238651349 L 143.53913301984 120.15995237549345 L 145.19132624673 121.94682599841303 L 146.84351947362 127.20656312683985 L 148.49571270052 150.80865908765315 L 150.14790592741 161.2834782511336 L 151.8000991543 164.05352979480003 L 153.4522923812 143.66739266346656 L 155.10448560809 118.70158908525343 L 156.75667883498 87.12939332292015 L 158.40887206188 93.97385615007974 L 160.06106528877 94.4363017891068 L 161.71325851567 80.31095784983319 L 163.36545174256 83.8863116554001 L 165.01764496945 89.25861105719315 L 166.66983819635 89.05139370100034 L 168.32203142324 84.47015692084656 L 169.97422465013 92.42138528929323 L 171.62641787703 83.3097496058736 L 173.27861110392 76.87569056567304 L 174.93080433081 76.0445148856397 L 176.58299755771 72.82953087144014 L 178.2351907846 60.4005589450999 L 179.88738401149 60.92392535869996 L 181.53957723839 67.39548603910012 L 183.19177046528 54.77238422500011 L 184.84396369217 59.50199655994663 L 186.49615691907 59.32311660250636 L 188.14835014596 72.55098166587979 L 189.80054337285 83.77827394220637 L 191.45273659975 69.40825115393312 L 193.10492982664 72.03621714617347 L 194.75712305353 67.7336368763732 L 196.40931628043 65.49554708155338 L 198.06150950732 67.80073503666031 L 199.71370273422 76.33300787634661 L 201.36589596111 91.52988492716676 L 203.018089188 84.23475343673337 L 204.6702824149 108.71955024510657 L 206.32247564179 102.1122004921798 L 207.97466886868 88.92195099820688 L 209.62686209558 76.78636104274648 L 211.27905532247 77.11643246485312 L 212.93124854936 70.30436050933304 L 214.58344177626 80.04731468176001 L 216.23563500315 80.02123141067969 L 217.88782823004 83.1761464953002 L 219.54002145694 79.98645168647985 L 221.19221468383 90.61134362742649 L 222.84440791072 75.55504995226025 L 224.49660113762 71.36996187525347 L 226.14879436451 73.09812453359987 L 227.8009875914 67.25342258851336 L 229.4531808183 69.12989826389332 L 231.10537404519 75.69581178685331 L 232.75756727208 77.89997765902694 L 234.40976049898 86.14767359272648 L 236.06195372587 96.45815540173987 L 237.71414695277 87.50309634062646 L 239.36634017966 50.831633237706654 L 241.01853340655 36.52439217446678 L 242.67072663345 30.840424238160182 L 244.32291986034 37.80904672022635 L 245.97511308723 47.59108297216025 L 247.62730631413 53.88433850784651 L 249.27949954102 53.17834555670646 L 250.93169276791 43.99920393980665 L 252.58388599481 36.349523990766556 L 254.2360792217 33.833261321166844 L 255.88827244859 31.925334813346893 L 257.54046567549 21.068271209153295 L 259.19265890238 33.494792653026565 L 260.84485212927 33.16433179106676 L 262.49704535617 40.53823301704659 L 264.14923858306 41.93794189539972 L 265.80143180995 41.8418221958064 L 267.45362503685 39.92614403070664 L 269.10581826374 30.939821073653206 L 270.75801149063 29.21166827656694 L 272.41020471753 28.959439220566793 L 274.06239794442 34.87296179131985 L 275.71459117132 31.311252255066393 L 277.36678439821 39.45851037703969 L 279.0189776251 25.633238078459925 L 280.671170852 19.54940536880636 L 282.32336407889 22.692232268473617 L 283.97555730578 26.648054032099736 L 285.62775053268 27.810974261353635 L 287.27994375957 37.879822680220286 L 288.93213698646 44.63393740589305 L 290.58433021336 50.67209967863994 L 292.23652344025 49.20031654243971 L 293.88871666714 44.15672832080682 L 295.54090989404 50.08512400885999 L 297.19310312093 52.270422628286354 L 298.84529634782 86.39486322520023 L 300.49748957472 98.44981846228697 L 302.14968280161 95.61838202001348 L 303.8018760285 96.5750815790336 L 305.4540692554 92.37359820877987 L 307.10626248229 82.63685867054008 L 308.75845570918 77.06728390665333 L 310.41064893608 88.60486154083338 L 312.06284216297 98.9146173366135 L 313.71503538987 100.95567100787315 L 315.36722861676 112.19503437337985 L 317.01942184365 100.08559570402022 L 318.67161507055 98.6951678331265 L 320.32380829744 99.31777922776664 L 321.97600152433 105.49146651376 L 323.62819475123 109.32756718227338 L 325.28038797812 102.20710352399993 L 326.93258120501 125.0788871412465 L 328.58477443191 132.98555606789313 L 330.2369676588 145.92529663219975 L 331.88916088569 139.15489672931324 L 333.54135411259 145.67618707168015 L 335.19354733948 142.8520958250398 L 336.84574056637 146.62022438286675 L 338.49793379327 155.17271704342005 L 340.15012702016 157.10283591637307 L 341.80232024705 144.74199406080683 L 343.45451347395 141.66932073287305 L 345.10670670084 141.89738543478018 L 346.75889992774 127.59684709471355 L 348.41109315463 120.70233303279326 L 350.06328638152 123.50618277968661 L 351.71547960842 110.28650241415303 L 353.36767283531 121.72088714559979 L 355.0198660622 122.7684850620401 L 356.6720592891 119.05242026897335 L 358.32425251599 114.27269266911995 L 359.97644574288 116.86309686263303 L 361.62863896978 118.50840671597993 L 363.28083219667 111.23400287618665 L 364.93302542356 114.88913422583323 L 366.58521865046 121.80820378050001 L 368.23741187735 127.5603738578001 L 369.88960510424 146.26065897695358 L 371.54179833114 140.48160543714647 L 373.19399155803 129.08180502862638 L 374.84618478492 117.71713610459344 L 376.49837801182 114.5694163558733 L 378.15057123871 118.2547226880134 L 379.8027644656 118.81301238720022 L 381.4549576925 129.88529174734637 L 383.10715091939 138.4540686708667 L 384.75934414629 143.7819205406802 L 386.41153737318 132.24469189116667 L 388.06373060007 125.2776694503664 L 389.71592382697 144.8309524187668 L 391.36811705386 128.76729370392678 L 393.02031028075 147.29046154965334 L 394.67250350765 167.92947445461985 L 396.32469673454 177.91648186006637 L 397.97688996143 188.0944908733531 L 399.62908318833 198.33637137634634 L 401.28127641522 192.80837582476 L 402.93346964211 180.08210388554696 L 404.58566286901 186.94381603838013 L 406.2378560959 186.40718183785998 L 407.89004932279 193.71018430891974 L 409.54224254969 205.41100792359993 L 411.19443577658 215.8908793420264 L 412.84662900347 203.8941325023667 L 414.49882223037 187.29544410634645 L 416.15101545726 178.9308034364201 L 417.80320868415 174.50228199659355 L 419.45540191105 157.91249065731353 L 421.10759513794 157.1377234038597 L 422.75978836484 151.65250038480667 L 424.41198159173 161.25114550037313 L 426.06417481862 171.14256248015346 L 427.71636804552 155.75738037331334 L 429.36856127241 138.63793299701322 L 431.0207544993 138.76880322062692 L 432.6729477262 144.22723404657344 L 434.32514095309 131.30578008517338 L 435.97733417998 142.07377466554686 L 437.62952740688 146.3810502157864 L 439.28172063377 136.1148715279665 L 440.93391386066 142.30100908169342 L 442.58610708756 135.27349473294638 L 444.23830031445 137.75829233123994 L 445.89049354134 131.67200878931357 L 447.54268676824 140.9489742287135 L 449.19487999513 142.61695372139982 L 450.84707322202 141.04392964476645 L 452.49926644892 138.59509683893998 L 454.15145967581 149.3950213005666 L 455.8036529027 165.6431708653864 L 457.4558461296 166.38075143798696 L 459.10803935649 145.43465033046638 L 460.76023258339 120.08863507735322 L 462.41242581028 126.70984042483366 L 464.06461903717 123.83374770367999 L 465.71681226407 134.60129596545343 L 467.36900549096 147.04574262358693 L 469.02119871785 148.3598855069264 L 470.67339194475 144.62547037581302 L 472.32558517164 143.39863494015333 L 473.97777839853 149.15955042980693 L 475.62997162543 139.26117912452656 L 477.28216485232 148.80201113241978 L 478.93435807921 148.12904511652005 L 480.24509803922 134.94935964953675 L 480.24509803922 274 L 478.93435807921 274 L 477.28216485232 274 L 475.62997162543 274 L 473.97777839853 274 L 472.32558517164 274 L 470.67339194475 274 L 469.02119871785 274 L 467.36900549096 274 L 465.71681226407 274 L 464.06461903717 274 L 462.41242581028 274 L 460.76023258339 274 L 459.10803935649 274 L 457.4558461296 274 L 455.8036529027 274 L 454.15145967581 274 L 452.49926644892 274 L 450.84707322202 274 L 449.19487999513 274 L 447.54268676824 274 L 445.89049354134 274 L 444.23830031445 274 L 442.58610708756 274 L 440.93391386066 274 L 439.28172063377 274 L 437.62952740688 274 L 435.97733417998 274 L 434.32514095309 274 L 432.6729477262 274 L 431.0207544993 274 L 429.36856127241 274 L 427.71636804552 274 L 426.06417481862 274 L 424.41198159173 274 L 422.75978836484 274 L 421.10759513794 274 L 419.45540191105 274 L 417.80320868415 274 L 416.15101545726 274 L 414.49882223037 274 L 412.84662900347 274 L 411.19443577658 274 L 409.54224254969 274 L 407.89004932279 274 L 406.2378560959 274 L 404.58566286901 274 L 402.93346964211 274 L 401.28127641522 274 L 399.62908318833 274 L 397.97688996143 274 L 396.32469673454 274 L 394.67250350765 274 L 393.02031028075 274 L 391.36811705386 274 L 389.71592382697 274 L 388.06373060007 274 L 386.41153737318 274 L 384.75934414629 274 L 383.10715091939 274 L 381.4549576925 274 L 379.8027644656 274 L 378.15057123871 274 L 376.49837801182 274 L 374.84618478492 274 L 373.19399155803 274 L 371.54179833114 274 L 369.88960510424 274 L 368.23741187735 274 L 366.58521865046 274 L 364.93302542356 274 L 363.28083219667 274 L 361.62863896978 274 L 359.97644574288 274 L 358.32425251599 274 L 356.6720592891 274 L 355.0198660622 274 L 353.36767283531 274 L 351.71547960842 274 L 350.06328638152 274 L 348.41109315463 274 L 346.75889992774 274 L 345.10670670084 274 L 343.45451347395 274 L 341.80232024705 274 L 340.15012702016 274 L 338.49793379327 274 L 336.84574056637 274 L 335.19354733948 274 L 333.54135411259 274 L 331.88916088569 274 L 330.2369676588 274 L 328.58477443191 274 L 326.93258120501 274 L 325.28038797812 274 L 323.62819475123 274 L 321.97600152433 274 L 320.32380829744 274 L 318.67161507055 274 L 317.01942184365 274 L 315.36722861676 274 L 313.71503538987 274 L 312.06284216297 274 L 310.41064893608 274 L 308.75845570918 274 L 307.10626248229 274 L 305.4540692554 274 L 303.8018760285 274 L 302.14968280161 274 L 300.49748957472 274 L 298.84529634782 274 L 297.19310312093 274 L 295.54090989404 274 L 293.88871666714 274 L 292.23652344025 274 L 290.58433021336 274 L 288.93213698646 274 L 287.27994375957 274 L 285.62775053268 274 L 283.97555730578 274 L 282.32336407889 274 L 280.671170852 274 L 279.0189776251 274 L 277.36678439821 274 L 275.71459117132 274 L 274.06239794442 274 L 272.41020471753 274 L 270.75801149063 274 L 269.10581826374 274 L 267.45362503685 274 L 265.80143180995 274 L 264.14923858306 274 L 262.49704535617 274 L 260.84485212927 274 L 259.19265890238 274 L 257.54046567549 274 L 255.88827244859 274 L 254.2360792217 274 L 252.58388599481 274 L 250.93169276791 274 L 249.27949954102 274 L 247.62730631413 274 L 245.97511308723 274 L 244.32291986034 274 L 242.67072663345 274 L 241.01853340655 274 L 239.36634017966 274 L 237.71414695277 274 L 236.06195372587 274 L 234.40976049898 274 L 232.75756727208 274 L 231.10537404519 274 L 229.4531808183 274 L 227.8009875914 274 L 226.14879436451 274 L 224.49660113762 274 L 222.84440791072 274 L 221.19221468383 274 L 219.54002145694 274 L 217.88782823004 274 L 216.23563500315 274 L 214.58344177626 274 L 212.93124854936 274 L 211.27905532247 274 L 209.62686209558 274 L 207.97466886868 274 L 206.32247564179 274 L 204.6702824149 274 L 203.018089188 274 L 201.36589596111 274 L 199.71370273422 274 L 198.06150950732 274 L 196.40931628043 274 L 194.75712305353 274 L 193.10492982664 274 L 191.45273659975 274 L 189.80054337285 274 L 188.14835014596 274 L 186.49615691907 274 L 184.84396369217 274 L 183.19177046528 274 L 181.53957723839 274 L 179.88738401149 274 L 178.2351907846 274 L 176.58299755771 274 L 174.93080433081 274 L 173.27861110392 274 L 171.62641787703 274 L 169.97422465013 274 L 168.32203142324 274 L 166.66983819635 274 L 165.01764496945 274 L 163.36545174256 274 L 161.71325851567 274 L 160.06106528877 274 L 158.40887206188 274 L 156.75667883498 274 L 155.10448560809 274 L 153.4522923812 274 L 151.8000991543 274 L 150.14790592741 274 L 148.49571270052 274 L 146.84351947362 274 L 145.19132624673 274 L 143.53913301984 274 L 141.88693979294 274 L 140.23474656605 274 L 138.58255333916 274 L 136.93036011226 274 L 135.27816688537 274 L 133.62597365848 274 L 131.97378043158 274 L 130.32158720469 274 L 128.6693939778 274 L 127.0172007509 274 L 125.36500752401 274 L 123.71281429711 274 L 122.06062107022 274 L 120.40842784333 274 L 118.75623461643 274 L 117.10404138954 274 L 115.45184816265 274 L 113.79965493575 274 L 112.14746170886 274 L 110.49526848197 274 L 108.84307525507 274 L 107.19088202818 274 L 105.53868880129 274 L 103.88649557439 274 L 102.2343023475 274 L 100.58210912061 274 L 98.929915893713 274 L 97.277722666819 274 L 95.625529439926 274 L 93.973336213032 274 L 92.321142986139 274 L 90.668949759245 274 L 89.016756532352 274 L 87.364563305458 274 L 85.712370078565 274 L 84.060176851671 274 L 82.407983624778 274 L 80.755790397884 274 L 79.103597170991 274 L 77.451403944098 274 L 75.799210717204 274 L 74.147017490311 274 L 72.494824263417 274 L 70.842631036524 274 L 69.19043780963 274 L 67.538244582737 274 L 65.886051355843 274 L 64.23385812895 274 L 62.581664902056 274 L 60.929471675163 274 L 59.277278448269 274 L 57.625085221376 274 L 55.972891994482 274 L 54.320698767589 274 L 52.668505540695 274 L 51.016312313802 274 L 49.364119086908 274 L 47.711925860015 274 L 46.059732633121 274 L 44.407539406228 274 L 42.755346179334 274 L 41.103152952441 274 L 39.450959725547 274 L 37.798766498654 274 L 36.14657327176 274 L 34.494380044867 274 L 32.842186817973 274 L 31.18999359108 274 L 29.537800364187 274 L 27.885607137293 274 L 26.2334139104 274 L 24.581220683506 274 L 22.929027456613 274 L 21.276834229719 274 L 19.624641002826 274 L 17.972447775932 274 L 16.320254549039 274 L 14.668061322145 274 L 13.015868095252 274 L 11.363674868358 274 L 9.7114816414648 274 L 8.0592884145713 274 L 6.4070951876778 274 L 4.7549019607843 274" class="highcharts-area" data-z-index="0"></path><path fill="none" d="M 4.7549019607843 168.22479616100696 L 6.4070951876778 161.42262901595984 L 8.0592884145713 151.5864843391132 L 9.7114816414648 134.01548304298666 L 11.363674868358 135.06868247660023 L 13.015868095252 144.3737344421798 L 14.668061322145 155.73863107482657 L 16.320254549039 163.57353089742648 L 17.972447775932 171.99313923252015 L 19.624641002826 195.43771644942646 L 21.276834229719 213.54960346615968 L 22.929027456613 238.0228861588534 L 24.581220683506 223.09103179486652 L 26.2334139104 235.46096303507997 L 27.885607137293 235.4709688200333 L 29.537800364187 221.75125211796694 L 31.18999359108 217.3035715395869 L 32.842186817973 227.02156059931343 L 34.494380044867 218.47854244227977 L 36.14657327176 234.6761608823469 L 37.798766498654 249.01749893302645 L 39.450959725547 246.98063186851357 L 41.103152952441 249.81666170067308 L 42.755346179334 214.2097719786933 L 44.407539406228 217.28734650993994 L 46.059732633121 218.24783001078663 L 47.711925860015 237.3175131436731 L 49.364119086908 233.55786823777984 L 51.016312313802 247.7662849127197 L 52.668505540695 248.63519149514673 L 54.320698767589 231.42586463316667 L 55.972891994482 230.52185741499983 L 57.625085221376 220.44208821009983 L 59.277278448269 220.3144362206068 L 60.929471675163 206.53284979702664 L 62.581664902056 205.0929158700865 L 64.23385812895 201.31934659838015 L 65.886051355843 200.45722236626645 L 67.538244582737 191.47962386056642 L 69.19043780963 192.27696206038655 L 70.842631036524 193.5803888777069 L 72.494824263417 166.18766294933354 L 74.147017490311 168.04742815657352 L 75.799210717204 167.68679981423978 L 77.451403944098 180.56756472814652 L 79.103597170991 180.90033532060022 L 80.755790397884 173.06381816276635 L 82.407983624778 191.28581635298633 L 84.060176851671 172.27411106935978 L 85.712370078565 147.05317670390667 L 87.364563305458 154.30461205073345 L 89.016756532352 146.19340768993996 L 90.668949759245 145.69757185195334 L 92.321142986139 151.8090158110402 L 93.973336213032 158.76248006236642 L 95.625529439926 157.22192002176695 L 97.277722666819 152.74268888956024 L 98.929915893713 139.79926799926642 L 100.58210912061 152.75650108799346 L 102.2343023475 150.74560610901312 L 103.88649557439 137.91863322947972 L 105.53868880129 156.8612514215265 L 107.19088202818 148.56449563347314 L 108.84307525507 136.07407514553995 L 110.49526848197 124.30099154667988 L 112.14746170886 126.64855998598671 L 113.79965493575 131.42054322518032 L 115.45184816265 121.89745152447361 L 117.10404138954 128.1677843206269 L 118.75623461643 128.7912567602665 L 120.40842784333 138.41505269203324 L 122.06062107022 136.71410724098024 L 123.71281429711 133.86572543858674 L 125.36500752401 131.7856460432265 L 127.0172007509 126.16134451223343 L 128.6693939778 112.5709121510065 L 130.32158720469 116.73437956388008 L 131.97378043158 117.33850105035316 L 133.62597365848 115.6737999274797 L 135.27816688537 122.35160884251351 L 136.93036011226 124.72906947165347 L 138.58255333916 120.62685169180662 L 140.23474656605 114.44561520347972 L 141.88693979294 119.57992238651349 L 143.53913301984 120.15995237549345 L 145.19132624673 121.94682599841303 L 146.84351947362 127.20656312683985 L 148.49571270052 150.80865908765315 L 150.14790592741 161.2834782511336 L 151.8000991543 164.05352979480003 L 153.4522923812 143.66739266346656 L 155.10448560809 118.70158908525343 L 156.75667883498 87.12939332292015 L 158.40887206188 93.97385615007974 L 160.06106528877 94.4363017891068 L 161.71325851567 80.31095784983319 L 163.36545174256 83.8863116554001 L 165.01764496945 89.25861105719315 L 166.66983819635 89.05139370100034 L 168.32203142324 84.47015692084656 L 169.97422465013 92.42138528929323 L 171.62641787703 83.3097496058736 L 173.27861110392 76.87569056567304 L 174.93080433081 76.0445148856397 L 176.58299755771 72.82953087144014 L 178.2351907846 60.4005589450999 L 179.88738401149 60.92392535869996 L 181.53957723839 67.39548603910012 L 183.19177046528 54.77238422500011 L 184.84396369217 59.50199655994663 L 186.49615691907 59.32311660250636 L 188.14835014596 72.55098166587979 L 189.80054337285 83.77827394220637 L 191.45273659975 69.40825115393312 L 193.10492982664 72.03621714617347 L 194.75712305353 67.7336368763732 L 196.40931628043 65.49554708155338 L 198.06150950732 67.80073503666031 L 199.71370273422 76.33300787634661 L 201.36589596111 91.52988492716676 L 203.018089188 84.23475343673337 L 204.6702824149 108.71955024510657 L 206.32247564179 102.1122004921798 L 207.97466886868 88.92195099820688 L 209.62686209558 76.78636104274648 L 211.27905532247 77.11643246485312 L 212.93124854936 70.30436050933304 L 214.58344177626 80.04731468176001 L 216.23563500315 80.02123141067969 L 217.88782823004 83.1761464953002 L 219.54002145694 79.98645168647985 L 221.19221468383 90.61134362742649 L 222.84440791072 75.55504995226025 L 224.49660113762 71.36996187525347 L 226.14879436451 73.09812453359987 L 227.8009875914 67.25342258851336 L 229.4531808183 69.12989826389332 L 231.10537404519 75.69581178685331 L 232.75756727208 77.89997765902694 L 234.40976049898 86.14767359272648 L 236.06195372587 96.45815540173987 L 237.71414695277 87.50309634062646 L 239.36634017966 50.831633237706654 L 241.01853340655 36.52439217446678 L 242.67072663345 30.840424238160182 L 244.32291986034 37.80904672022635 L 245.97511308723 47.59108297216025 L 247.62730631413 53.88433850784651 L 249.27949954102 53.17834555670646 L 250.93169276791 43.99920393980665 L 252.58388599481 36.349523990766556 L 254.2360792217 33.833261321166844 L 255.88827244859 31.925334813346893 L 257.54046567549 21.068271209153295 L 259.19265890238 33.494792653026565 L 260.84485212927 33.16433179106676 L 262.49704535617 40.53823301704659 L 264.14923858306 41.93794189539972 L 265.80143180995 41.8418221958064 L 267.45362503685 39.92614403070664 L 269.10581826374 30.939821073653206 L 270.75801149063 29.21166827656694 L 272.41020471753 28.959439220566793 L 274.06239794442 34.87296179131985 L 275.71459117132 31.311252255066393 L 277.36678439821 39.45851037703969 L 279.0189776251 25.633238078459925 L 280.671170852 19.54940536880636 L 282.32336407889 22.692232268473617 L 283.97555730578 26.648054032099736 L 285.62775053268 27.810974261353635 L 287.27994375957 37.879822680220286 L 288.93213698646 44.63393740589305 L 290.58433021336 50.67209967863994 L 292.23652344025 49.20031654243971 L 293.88871666714 44.15672832080682 L 295.54090989404 50.08512400885999 L 297.19310312093 52.270422628286354 L 298.84529634782 86.39486322520023 L 300.49748957472 98.44981846228697 L 302.14968280161 95.61838202001348 L 303.8018760285 96.5750815790336 L 305.4540692554 92.37359820877987 L 307.10626248229 82.63685867054008 L 308.75845570918 77.06728390665333 L 310.41064893608 88.60486154083338 L 312.06284216297 98.9146173366135 L 313.71503538987 100.95567100787315 L 315.36722861676 112.19503437337985 L 317.01942184365 100.08559570402022 L 318.67161507055 98.6951678331265 L 320.32380829744 99.31777922776664 L 321.97600152433 105.49146651376 L 323.62819475123 109.32756718227338 L 325.28038797812 102.20710352399993 L 326.93258120501 125.0788871412465 L 328.58477443191 132.98555606789313 L 330.2369676588 145.92529663219975 L 331.88916088569 139.15489672931324 L 333.54135411259 145.67618707168015 L 335.19354733948 142.8520958250398 L 336.84574056637 146.62022438286675 L 338.49793379327 155.17271704342005 L 340.15012702016 157.10283591637307 L 341.80232024705 144.74199406080683 L 343.45451347395 141.66932073287305 L 345.10670670084 141.89738543478018 L 346.75889992774 127.59684709471355 L 348.41109315463 120.70233303279326 L 350.06328638152 123.50618277968661 L 351.71547960842 110.28650241415303 L 353.36767283531 121.72088714559979 L 355.0198660622 122.7684850620401 L 356.6720592891 119.05242026897335 L 358.32425251599 114.27269266911995 L 359.97644574288 116.86309686263303 L 361.62863896978 118.50840671597993 L 363.28083219667 111.23400287618665 L 364.93302542356 114.88913422583323 L 366.58521865046 121.80820378050001 L 368.23741187735 127.5603738578001 L 369.88960510424 146.26065897695358 L 371.54179833114 140.48160543714647 L 373.19399155803 129.08180502862638 L 374.84618478492 117.71713610459344 L 376.49837801182 114.5694163558733 L 378.15057123871 118.2547226880134 L 379.8027644656 118.81301238720022 L 381.4549576925 129.88529174734637 L 383.10715091939 138.4540686708667 L 384.75934414629 143.7819205406802 L 386.41153737318 132.24469189116667 L 388.06373060007 125.2776694503664 L 389.71592382697 144.8309524187668 L 391.36811705386 128.76729370392678 L 393.02031028075 147.29046154965334 L 394.67250350765 167.92947445461985 L 396.32469673454 177.91648186006637 L 397.97688996143 188.0944908733531 L 399.62908318833 198.33637137634634 L 401.28127641522 192.80837582476 L 402.93346964211 180.08210388554696 L 404.58566286901 186.94381603838013 L 406.2378560959 186.40718183785998 L 407.89004932279 193.71018430891974 L 409.54224254969 205.41100792359993 L 411.19443577658 215.8908793420264 L 412.84662900347 203.8941325023667 L 414.49882223037 187.29544410634645 L 416.15101545726 178.9308034364201 L 417.80320868415 174.50228199659355 L 419.45540191105 157.91249065731353 L 421.10759513794 157.1377234038597 L 422.75978836484 151.65250038480667 L 424.41198159173 161.25114550037313 L 426.06417481862 171.14256248015346 L 427.71636804552 155.75738037331334 L 429.36856127241 138.63793299701322 L 431.0207544993 138.76880322062692 L 432.6729477262 144.22723404657344 L 434.32514095309 131.30578008517338 L 435.97733417998 142.07377466554686 L 437.62952740688 146.3810502157864 L 439.28172063377 136.1148715279665 L 440.93391386066 142.30100908169342 L 442.58610708756 135.27349473294638 L 444.23830031445 137.75829233123994 L 445.89049354134 131.67200878931357 L 447.54268676824 140.9489742287135 L 449.19487999513 142.61695372139982 L 450.84707322202 141.04392964476645 L 452.49926644892 138.59509683893998 L 454.15145967581 149.3950213005666 L 455.8036529027 165.6431708653864 L 457.4558461296 166.38075143798696 L 459.10803935649 145.43465033046638 L 460.76023258339 120.08863507735322 L 462.41242581028 126.70984042483366 L 464.06461903717 123.83374770367999 L 465.71681226407 134.60129596545343 L 467.36900549096 147.04574262358693 L 469.02119871785 148.3598855069264 L 470.67339194475 144.62547037581302 L 472.32558517164 143.39863494015333 L 473.97777839853 149.15955042980693 L 475.62997162543 139.26117912452656 L 477.28216485232 148.80201113241978 L 478.93435807921 148.12904511652005 L 480.24509803922 134.94935964953675" class="highcharts-graph" data-z-index="1" stroke="var(--bColor)" stroke-width="2" stroke-linejoin="round" stroke-linecap="round"></path><path fill="none" d="M -5.2450980392157 168.22479616100696 L 4.7549019607843 168.22479616100696 L 6.4070951876778 161.42262901595984 L 8.0592884145713 151.5864843391132 L 9.7114816414648 134.01548304298666 L 11.363674868358 135.06868247660023 L 13.015868095252 144.3737344421798 L 14.668061322145 155.73863107482657 L 16.320254549039 163.57353089742648 L 17.972447775932 171.99313923252015 L 19.624641002826 195.43771644942646 L 21.276834229719 213.54960346615968 L 22.929027456613 238.0228861588534 L 24.581220683506 223.09103179486652 L 26.2334139104 235.46096303507997 L 27.885607137293 235.4709688200333 L 29.537800364187 221.75125211796694 L 31.18999359108 217.3035715395869 L 32.842186817973 227.02156059931343 L 34.494380044867 218.47854244227977 L 36.14657327176 234.6761608823469 L 37.798766498654 249.01749893302645 L 39.450959725547 246.98063186851357 L 41.103152952441 249.81666170067308 L 42.755346179334 214.2097719786933 L 44.407539406228 217.28734650993994 L 46.059732633121 218.24783001078663 L 47.711925860015 237.3175131436731 L 49.364119086908 233.55786823777984 L 51.016312313802 247.7662849127197 L 52.668505540695 248.63519149514673 L 54.320698767589 231.42586463316667 L 55.972891994482 230.52185741499983 L 57.625085221376 220.44208821009983 L 59.277278448269 220.3144362206068 L 60.929471675163 206.53284979702664 L 62.581664902056 205.0929158700865 L 64.23385812895 201.31934659838015 L 65.886051355843 200.45722236626645 L 67.538244582737 191.47962386056642 L 69.19043780963 192.27696206038655 L 70.842631036524 193.5803888777069 L 72.494824263417 166.18766294933354 L 74.147017490311 168.04742815657352 L 75.799210717204 167.68679981423978 L 77.451403944098 180.56756472814652 L 79.103597170991 180.90033532060022 L 80.755790397884 173.06381816276635 L 82.407983624778 191.28581635298633 L 84.060176851671 172.27411106935978 L 85.712370078565 147.05317670390667 L 87.364563305458 154.30461205073345 L 89.016756532352 146.19340768993996 L 90.668949759245 145.69757185195334 L 92.321142986139 151.8090158110402 L 93.973336213032 158.76248006236642 L 95.625529439926 157.22192002176695 L 97.277722666819 152.74268888956024 L 98.929915893713 139.79926799926642 L 100.58210912061 152.75650108799346 L 102.2343023475 150.74560610901312 L 103.88649557439 137.91863322947972 L 105.53868880129 156.8612514215265 L 107.19088202818 148.56449563347314 L 108.84307525507 136.07407514553995 L 110.49526848197 124.30099154667988 L 112.14746170886 126.64855998598671 L 113.79965493575 131.42054322518032 L 115.45184816265 121.89745152447361 L 117.10404138954 128.1677843206269 L 118.75623461643 128.7912567602665 L 120.40842784333 138.41505269203324 L 122.06062107022 136.71410724098024 L 123.71281429711 133.86572543858674 L 125.36500752401 131.7856460432265 L 127.0172007509 126.16134451223343 L 128.6693939778 112.5709121510065 L 130.32158720469 116.73437956388008 L 131.97378043158 117.33850105035316 L 133.62597365848 115.6737999274797 L 135.27816688537 122.35160884251351 L 136.93036011226 124.72906947165347 L 138.58255333916 120.62685169180662 L 140.23474656605 114.44561520347972 L 141.88693979294 119.57992238651349 L 143.53913301984 120.15995237549345 L 145.19132624673 121.94682599841303 L 146.84351947362 127.20656312683985 L 148.49571270052 150.80865908765315 L 150.14790592741 161.2834782511336 L 151.8000991543 164.05352979480003 L 153.4522923812 143.66739266346656 L 155.10448560809 118.70158908525343 L 156.75667883498 87.12939332292015 L 158.40887206188 93.97385615007974 L 160.06106528877 94.4363017891068 L 161.71325851567 80.31095784983319 L 163.36545174256 83.8863116554001 L 165.01764496945 89.25861105719315 L 166.66983819635 89.05139370100034 L 168.32203142324 84.47015692084656 L 169.97422465013 92.42138528929323 L 171.62641787703 83.3097496058736 L 173.27861110392 76.87569056567304 L 174.93080433081 76.0445148856397 L 176.58299755771 72.82953087144014 L 178.2351907846 60.4005589450999 L 179.88738401149 60.92392535869996 L 181.53957723839 67.39548603910012 L 183.19177046528 54.77238422500011 L 184.84396369217 59.50199655994663 L 186.49615691907 59.32311660250636 L 188.14835014596 72.55098166587979 L 189.80054337285 83.77827394220637 L 191.45273659975 69.40825115393312 L 193.10492982664 72.03621714617347 L 194.75712305353 67.7336368763732 L 196.40931628043 65.49554708155338 L 198.06150950732 67.80073503666031 L 199.71370273422 76.33300787634661 L 201.36589596111 91.52988492716676 L 203.018089188 84.23475343673337 L 204.6702824149 108.71955024510657 L 206.32247564179 102.1122004921798 L 207.97466886868 88.92195099820688 L 209.62686209558 76.78636104274648 L 211.27905532247 77.11643246485312 L 212.93124854936 70.30436050933304 L 214.58344177626 80.04731468176001 L 216.23563500315 80.02123141067969 L 217.88782823004 83.1761464953002 L 219.54002145694 79.98645168647985 L 221.19221468383 90.61134362742649 L 222.84440791072 75.55504995226025 L 224.49660113762 71.36996187525347 L 226.14879436451 73.09812453359987 L 227.8009875914 67.25342258851336 L 229.4531808183 69.12989826389332 L 231.10537404519 75.69581178685331 L 232.75756727208 77.89997765902694 L 234.40976049898 86.14767359272648 L 236.06195372587 96.45815540173987 L 237.71414695277 87.50309634062646 L 239.36634017966 50.831633237706654 L 241.01853340655 36.52439217446678 L 242.67072663345 30.840424238160182 L 244.32291986034 37.80904672022635 L 245.97511308723 47.59108297216025 L 247.62730631413 53.88433850784651 L 249.27949954102 53.17834555670646 L 250.93169276791 43.99920393980665 L 252.58388599481 36.349523990766556 L 254.2360792217 33.833261321166844 L 255.88827244859 31.925334813346893 L 257.54046567549 21.068271209153295 L 259.19265890238 33.494792653026565 L 260.84485212927 33.16433179106676 L 262.49704535617 40.53823301704659 L 264.14923858306 41.93794189539972 L 265.80143180995 41.8418221958064 L 267.45362503685 39.92614403070664 L 269.10581826374 30.939821073653206 L 270.75801149063 29.21166827656694 L 272.41020471753 28.959439220566793 L 274.06239794442 34.87296179131985 L 275.71459117132 31.311252255066393 L 277.36678439821 39.45851037703969 L 279.0189776251 25.633238078459925 L 280.671170852 19.54940536880636 L 282.32336407889 22.692232268473617 L 283.97555730578 26.648054032099736 L 285.62775053268 27.810974261353635 L 287.27994375957 37.879822680220286 L 288.93213698646 44.63393740589305 L 290.58433021336 50.67209967863994 L 292.23652344025 49.20031654243971 L 293.88871666714 44.15672832080682 L 295.54090989404 50.08512400885999 L 297.19310312093 52.270422628286354 L 298.84529634782 86.39486322520023 L 300.49748957472 98.44981846228697 L 302.14968280161 95.61838202001348 L 303.8018760285 96.5750815790336 L 305.4540692554 92.37359820877987 L 307.10626248229 82.63685867054008 L 308.75845570918 77.06728390665333 L 310.41064893608 88.60486154083338 L 312.06284216297 98.9146173366135 L 313.71503538987 100.95567100787315 L 315.36722861676 112.19503437337985 L 317.01942184365 100.08559570402022 L 318.67161507055 98.6951678331265 L 320.32380829744 99.31777922776664 L 321.97600152433 105.49146651376 L 323.62819475123 109.32756718227338 L 325.28038797812 102.20710352399993 L 326.93258120501 125.0788871412465 L 328.58477443191 132.98555606789313 L 330.2369676588 145.92529663219975 L 331.88916088569 139.15489672931324 L 333.54135411259 145.67618707168015 L 335.19354733948 142.8520958250398 L 336.84574056637 146.62022438286675 L 338.49793379327 155.17271704342005 L 340.15012702016 157.10283591637307 L 341.80232024705 144.74199406080683 L 343.45451347395 141.66932073287305 L 345.10670670084 141.89738543478018 L 346.75889992774 127.59684709471355 L 348.41109315463 120.70233303279326 L 350.06328638152 123.50618277968661 L 351.71547960842 110.28650241415303 L 353.36767283531 121.72088714559979 L 355.0198660622 122.7684850620401 L 356.6720592891 119.05242026897335 L 358.32425251599 114.27269266911995 L 359.97644574288 116.86309686263303 L 361.62863896978 118.50840671597993 L 363.28083219667 111.23400287618665 L 364.93302542356 114.88913422583323 L 366.58521865046 121.80820378050001 L 368.23741187735 127.5603738578001 L 369.88960510424 146.26065897695358 L 371.54179833114 140.48160543714647 L 373.19399155803 129.08180502862638 L 374.84618478492 117.71713610459344 L 376.49837801182 114.5694163558733 L 378.15057123871 118.2547226880134 L 379.8027644656 118.81301238720022 L 381.4549576925 129.88529174734637 L 383.10715091939 138.4540686708667 L 384.75934414629 143.7819205406802 L 386.41153737318 132.24469189116667 L 388.06373060007 125.2776694503664 L 389.71592382697 144.8309524187668 L 391.36811705386 128.76729370392678 L 393.02031028075 147.29046154965334 L 394.67250350765 167.92947445461985 L 396.32469673454 177.91648186006637 L 397.97688996143 188.0944908733531 L 399.62908318833 198.33637137634634 L 401.28127641522 192.80837582476 L 402.93346964211 180.08210388554696 L 404.58566286901 186.94381603838013 L 406.2378560959 186.40718183785998 L 407.89004932279 193.71018430891974 L 409.54224254969 205.41100792359993 L 411.19443577658 215.8908793420264 L 412.84662900347 203.8941325023667 L 414.49882223037 187.29544410634645 L 416.15101545726 178.9308034364201 L 417.80320868415 174.50228199659355 L 419.45540191105 157.91249065731353 L 421.10759513794 157.1377234038597 L 422.75978836484 151.65250038480667 L 424.41198159173 161.25114550037313 L 426.06417481862 171.14256248015346 L 427.71636804552 155.75738037331334 L 429.36856127241 138.63793299701322 L 431.0207544993 138.76880322062692 L 432.6729477262 144.22723404657344 L 434.32514095309 131.30578008517338 L 435.97733417998 142.07377466554686 L 437.62952740688 146.3810502157864 L 439.28172063377 136.1148715279665 L 440.93391386066 142.30100908169342 L 442.58610708756 135.27349473294638 L 444.23830031445 137.75829233123994 L 445.89049354134 131.67200878931357 L 447.54268676824 140.9489742287135 L 449.19487999513 142.61695372139982 L 450.84707322202 141.04392964476645 L 452.49926644892 138.59509683893998 L 454.15145967581 149.3950213005666 L 455.8036529027 165.6431708653864 L 457.4558461296 166.38075143798696 L 459.10803935649 145.43465033046638 L 460.76023258339 120.08863507735322 L 462.41242581028 126.70984042483366 L 464.06461903717 123.83374770367999 L 465.71681226407 134.60129596545343 L 467.36900549096 147.04574262358693 L 469.02119871785 148.3598855069264 L 470.67339194475 144.62547037581302 L 472.32558517164 143.39863494015333 L 473.97777839853 149.15955042980693 L 475.62997162543 139.26117912452656 L 477.28216485232 148.80201113241978 L 478.93435807921 148.12904511652005 L 480.24509803922 134.94935964953675 L 490.24509803922 134.94935964953675" stroke-linejoin="round" stroke="rgba(192,192,192,0.0001)" stroke-width="22" visibility="visible" data-z-index="2" class="highcharts-tracker-line"></path></g><g data-z-index="0.1" class="highcharts-markers highcharts-series-0 highcharts-area-series highcharts-tracker " transform="translate(59,10) scale(1 1)"><path fill="#e47103" visibility="visible" d="M 457 166.38075143798696 A 0 0 0 1 1 457 166.38075143798696 Z" class="highcharts-halo highcharts-color-undefined" data-z-index="-1" fill-opacity="0.25"></path><path fill="transparent" d="M 463 166.38075143798696 A 6 6 0 1 1 462.99999700000023 166.37475143898695 Z" stroke="#ffffff" stroke-width="1" visibility="visible"></path></g></g><text x="10" text-anchor="undefined" class="highcharts-title" data-z-index="4" style="color:#333333;font-size:18px;fill:#333333;" y="24"></text><text x="277" text-anchor="middle" class="highcharts-subtitle" data-z-index="4" style="color:#666666;fill:#666666;" y="24"></text><g class="highcharts-legend" data-z-index="7"><rect fill="none" class="highcharts-legend-box" rx="0" ry="0" x="0" y="0" width="8" height="8" visibility="hidden"></rect><g data-z-index="1"><g></g></g></g><g class="highcharts-axis-labels highcharts-xaxis-labels " data-z-index="7"><text x="101.75534617933" style="color:#666666;cursor:default;font-size:11px;fill:#666666;" text-anchor="middle" transform="translate(0,0)" y="303" opacity="1">12:00</text><text x="0" style="color:#666666;cursor:default;font-size:11px;fill:#666666;" text-anchor="middle" transform="translate(0,0)" y="-9999">16:00</text><text x="260.36589596111" style="color:#666666;cursor:default;font-size:11px;fill:#666666;" text-anchor="middle" transform="translate(0,0)" y="303" opacity="1">20:00</text><text x="0" style="color:#666666;cursor:default;font-size:11px;fill:#666666;" text-anchor="middle" transform="translate(0,0)" y="-9999"><tspan>24 of Mar</tspan></text><text x="418.97644574288" style="color:#666666;cursor:default;font-size:11px;fill:#666666;" text-anchor="middle" transform="translate(0,0)" y="303" opacity="1">04:00</text><text x="0" style="color:#666666;cursor:default;font-size:11px;fill:#666666;" text-anchor="middle" transform="translate(0,0)" y="-9999">08:00</text></g><g class="highcharts-axis-labels highcharts-yaxis-labels " data-z-index="7"><text x="44" style="color:var(--eColor);cursor:default;font-size:11px;fill:var(--eColor);" text-anchor="end" transform="translate(0,0)" y="289" opacity="1"><tspan class="coin-chart-price ">
              $53,000
            </tspan></text><text x="44" style="color:var(--eColor);cursor:default;font-size:11px;fill:var(--eColor);" text-anchor="end" transform="translate(0,0)" y="244" opacity="1"><tspan class="coin-chart-price ">
              $53,500
            </tspan></text><text x="44" style="color:var(--eColor);cursor:default;font-size:11px;fill:var(--eColor);" text-anchor="end" transform="translate(0,0)" y="198" opacity="1"><tspan class="coin-chart-price ">
              $54,000
            </tspan></text><text x="44" style="color:var(--eColor);cursor:default;font-size:11px;fill:var(--eColor);" text-anchor="end" transform="translate(0,0)" y="152" opacity="1"><tspan class="coin-chart-price ">
              $54,500
            </tspan></text><text x="44" style="color:var(--eColor);cursor:default;font-size:11px;fill:var(--eColor);" text-anchor="end" transform="translate(0,0)" y="107" opacity="1"><tspan class="coin-chart-price ">
              $55,000
            </tspan></text><text x="44" style="color:var(--eColor);cursor:default;font-size:11px;fill:var(--eColor);" text-anchor="end" transform="translate(0,0)" y="61" opacity="1"><tspan class="coin-chart-price ">
              $55,500
            </tspan></text><text x="44" style="color:var(--eColor);cursor:default;font-size:11px;fill:var(--eColor);" text-anchor="end" transform="translate(0,0)" y="15" opacity="1"><tspan class="coin-chart-price ">
              $56,000
            </tspan></text></g><g class="highcharts-label" data-z-index="7" transform="translate(295,-5)"><path fill="var(--chartLabelBackground)" class="highcharts-label-box" d="M 15 0 L 84 0 C 99 0 99 0 99 15 L 99 9 C 99 24 99 24 84 24 L 51 24 45 30 39 24 15 24 C 0 24 0 24 0 9 L 0 15 C 0 0 0 0 15 0"></path><text x="5" data-z-index="1" style="color:var(--chartLabelTextColor);fill:var(--chartLabelTextColor);" y="17"><tspan>High </tspan><tspan class=" high-low-price" dx="0">
              $55,785.96
            </tspan></text></g><g class="highcharts-label" data-z-index="7" transform="translate(57,275)"><path fill="var(--chartLabelBackground)" class="highcharts-label-box" d="M 15 0 L 37 0 43 -6 49 0 82 0 C 97 0 97 0 97 15 L 97 9 C 97 24 97 24 82 24 L 15 24 C 0 24 0 24 0 9 L 0 15 C 0 0 0 0 15 0"></path><text x="5" data-z-index="1" style="color:var(--chartLabelTextColor);fill:var(--chartLabelTextColor);" y="17"><tspan>Low </tspan><tspan class=" high-low-price" dx="0">
              $53,264.78
            </tspan></text></g><g class="highcharts-label highcharts-tooltip highcharts-color-undefined" style="pointer-events:none;white-space:nowrap;" data-z-index="8" transform="translate(446,-9999)" opacity="0" visibility="visible"><path fill="none" class="highcharts-label-box highcharts-tooltip-box highcharts-shadow" d="M 3.5 0.5 L 103.5 0.5 C 106.5 0.5 106.5 0.5 106.5 3.5 L 106.5 44.5 C 106.5 47.5 106.5 47.5 103.5 47.5 L 75.5 47.5 69.5 53.5 63.5 47.5 3.5 47.5 C 0.5 47.5 0.5 47.5 0.5 44.5 L 0.5 3.5 C 0.5 0.5 0.5 0.5 3.5 0.5" stroke="#000000" stroke-opacity="0.049999999999999996" stroke-width="5" transform="translate(1, 1)"></path><path fill="none" class="highcharts-label-box highcharts-tooltip-box highcharts-shadow" d="M 3.5 0.5 L 103.5 0.5 C 106.5 0.5 106.5 0.5 106.5 3.5 L 106.5 44.5 C 106.5 47.5 106.5 47.5 103.5 47.5 L 75.5 47.5 69.5 53.5 63.5 47.5 3.5 47.5 C 0.5 47.5 0.5 47.5 0.5 44.5 L 0.5 3.5 C 0.5 0.5 0.5 0.5 3.5 0.5" stroke="#000000" stroke-opacity="0.09999999999999999" stroke-width="3" transform="translate(1, 1)"></path><path fill="none" class="highcharts-label-box highcharts-tooltip-box highcharts-shadow" d="M 3.5 0.5 L 103.5 0.5 C 106.5 0.5 106.5 0.5 106.5 3.5 L 106.5 44.5 C 106.5 47.5 106.5 47.5 103.5 47.5 L 75.5 47.5 69.5 53.5 63.5 47.5 3.5 47.5 C 0.5 47.5 0.5 47.5 0.5 44.5 L 0.5 3.5 C 0.5 0.5 0.5 0.5 3.5 0.5" stroke="#000000" stroke-opacity="0.15" stroke-width="1" transform="translate(1, 1)"></path><path fill="var(--fColor)" class="highcharts-label-box highcharts-tooltip-box" d="M 3.5 0.5 L 103.5 0.5 C 106.5 0.5 106.5 0.5 106.5 3.5 L 106.5 44.5 C 106.5 47.5 106.5 47.5 103.5 47.5 L 75.5 47.5 69.5 53.5 63.5 47.5 3.5 47.5 C 0.5 47.5 0.5 47.5 0.5 44.5 L 0.5 3.5 C 0.5 0.5 0.5 0.5 3.5 0.5" stroke="transparent" stroke-width="1"></path><text x="8" data-z-index="1" style="font-size:12px;color:#333333;cursor:default;fill:#333333;" y="20"><tspan style="fill: var(--eColor);">08:55</tspan><tspan class="chart-tooltip" style="font-size:14px; fill:var(--bColor)" x="8" dy="17">USD 
         </tspan><tspan dx="0">
        </tspan><tspan style="font-size:14px; fill: var(--eColor);" dx="0">54,178.31</tspan></text></g></svg>