<svg xmlns="http://www.w3.org/2000/svg" viewBox="0 0 50 50" width="50" height="50" preserveAspectRatio="xMidYMid meet" style="width: 100%; height: 100%; transform: translate3d(0px, 0px, 0px);"><defs><clipPath id="__lottie_element_104"><rect width="50" height="50" x="0" y="0"></rect></clipPath><mask id="__lottie_element_105" mask-type="alpha"><g transform="matrix(1,0,0,1,0,0)" opacity="1" style="display: block;"><g opacity="1" transform="matrix(1,0,0,1,25,25)"><path stroke-linecap="butt" stroke-linejoin="miter" fill-opacity="0" stroke-miterlimit="10" stroke="rgb(255,255,255)" stroke-opacity="1" stroke-width="13" d=" M10.940999984741211,10.26099967956543 C13.458000183105469,7.578000068664551 15,3.9690001010894775 15,0 C15,-8.284000396728516 8.284000396728516,-15 0,-15"></path></g></g></mask></defs><g clip-path="url(#__lottie_element_104)"><g transform="matrix(1,0,0,1,0,0)" opacity="1" style="display: block;"><g opacity="1" transform="matrix(1,0,0,1,25,25)"><path stroke-linecap="round" stroke-linejoin="miter" fill-opacity="0" stroke-miterlimit="10" stroke="rgb(255,255,255)" stroke-opacity="1" stroke-width="2" d=" M0,-22 C-12.149999618530273,-22 -22,-12.149999618530273 -22,0 C-22,12.149999618530273 -12.149999618530273,22 0,22 C12.149999618530273,22 22,12.149999618530273 22,0 C22,-12.149999618530273 12.149999618530273,-22 0,-22z"></path></g><g opacity="1" transform="matrix(1,0,0,1,25,25)"><path stroke-linecap="round" stroke-linejoin="miter" fill-opacity="0" stroke-miterlimit="10" stroke="rgb(255,255,255)" stroke-opacity="1" stroke-width="2" d=" M0,-8 C-4.418000221252441,-8 -8,-4.418000221252441 -8,0 C-8,4.418000221252441 -4.418000221252441,8 0,8 C4.418000221252441,8 8,4.418000221252441 8,0 C8,-4.418000221252441 4.418000221252441,-8 0,-8z"></path></g></g><g transform="matrix(1,0,0,1,0,0)" opacity="1" style="display: none;"><g opacity="1" transform="matrix(1,0,0,1,0,0)"><path stroke-linecap="round" stroke-linejoin="miter" fill-opacity="0" stroke-miterlimit="10" stroke="rgb(255,255,255)" stroke-opacity="1" stroke-width="2" d=" M25,3 C25,3 25,17 25,17"></path></g></g><g style="display: block;" transform="matrix(1,0,0,1,0,0)" opacity="1"><g opacity="1" transform="matrix(1,0,0,1,0,0)"><path stroke-linecap="round" stroke-linejoin="miter" fill-opacity="0" stroke-miterlimit="10" stroke="rgb(255,255,255)" stroke-opacity="1" stroke-width="2" d=" M25,3 C25,3 25,17 25,17"></path></g></g><g style="display: block;" transform="matrix(0.9999995827674866,-0.0009212468867190182,0.0009212468867190182,0.9999995827674866,-0.023019790649414062,0.023042678833007812)" opacity="1"><g opacity="1" transform="matrix(1,0,0,1,35.65399932861328,35.65399932861328)"><path stroke-linecap="round" stroke-linejoin="miter" fill-opacity="0" stroke-miterlimit="10" stroke="rgb(255,255,255)" stroke-opacity="1" stroke-width="2" d=" M-4.6539998054504395,-4.6539998054504395 C-4.6539998054504395,-4.6539998054504395 4.6539998054504395,4.6539998054504395 4.6539998054504395,4.6539998054504395"></path></g></g><g transform="matrix(-0.7059864401817322,-0.7082253694534302,0.7082253694534302,-0.7059864401817322,24.944026947021484,60.35529327392578)" opacity="1" style="display: none;"><g opacity="1" transform="matrix(1,0,0,1,35.65399932861328,35.65399932861328)"><path stroke-linecap="round" stroke-linejoin="miter" fill-opacity="0" stroke-miterlimit="10" stroke="rgb(255,255,255)" stroke-opacity="1" stroke-width="2" d=" M-4.6539998054504395,-4.6539998054504395 C-4.6539998054504395,-4.6539998054504395 4.6539998054504395,4.6539998054504395 4.6539998054504395,4.6539998054504395"></path></g></g><g mask="url(#__lottie_element_105)" style="display: block;"><g transform="matrix(1,0,0,1,0,0)" opacity="1"><g opacity="1" transform="matrix(1,0,0,1,29.104999542236328,9.031000137329102)"><path stroke-linecap="round" stroke-linejoin="miter" fill-opacity="0" stroke-miterlimit="10" stroke="rgb(255,255,255)" stroke-opacity="1" stroke-width="2" d=" M3.946000099182129,-3.947000026702881 C3.946000099182129,-3.947000026702881 -3.946000099182129,3.947000026702881 -3.946000099182129,3.947000026702881"></path></g><g opacity="1" transform="matrix(1,0,0,1,27.052000045776367,5.085000038146973)"><path stroke-linecap="round" stroke-linejoin="miter" fill-opacity="0" stroke-miterlimit="10" stroke="rgb(255,255,255)" stroke-opacity="1" stroke-width="2" d=" M1.6890000104904175,-1.6890000104904175 C1.6890000104904175,-1.6890000104904175 -1.6890000104904175,1.6890000104904175 -1.6890000104904175,1.6890000104904175"></path></g><g opacity="1" transform="matrix(1,0,0,1,32.189998626708984,11.947999954223633)"><path stroke-linecap="round" stroke-linejoin="miter" fill-opacity="0" stroke-miterlimit="10" stroke="rgb(255,255,255)" stroke-opacity="1" stroke-width="2" d=" M5.1570000648498535,-5.1579999923706055 C5.1570000648498535,-5.1579999923706055 -5.1570000648498535,5.1579999923706055 -5.1570000648498535,5.1579999923706055"></path></g><g opacity="1" transform="matrix(1,0,0,1,35.92300033569336,14.496999740600586)"><path stroke-linecap="round" stroke-linejoin="miter" fill-opacity="0" stroke-miterlimit="10" stroke="rgb(255,255,255)" stroke-opacity="1" stroke-width="2" d=" M-4.922999858856201,4.734000205993652 C-4.922999858856201,4.734000205993652 4.922999858856201,-4.734000205993652 4.922999858856201,-4.734000205993652"></path></g><g opacity="1" transform="matrix(1,0,0,1,45,34)"><path fill="rgb(255,255,255)" fill-opacity="1" d=" M0,-1 C-0.5529999732971191,-1 -1,-0.5529999732971191 -1,0 C-1,0.5529999732971191 -0.5529999732971191,1 0,1 C0.5529999732971191,1 1,0.5529999732971191 1,0 C1,-0.5529999732971191 0.5529999732971191,-1 0,-1z"></path></g><g opacity="1" transform="matrix(1,0,0,1,45,28)"><path fill="rgb(255,255,255)" fill-opacity="1" d=" M0,-1 C-0.5529999732971191,-1 -1,-0.5529999732971191 -1,0 C-1,0.5529999732971191 -0.5529999732971191,1 0,1 C0.5529999732971191,1 1,0.5529999732971191 1,0 C1,-0.5529999732971191 0.5529999732971191,-1 0,-1z"></path></g><g opacity="1" transform="matrix(1,0,0,1,45,22)"><path fill="rgb(255,255,255)" fill-opacity="1" d=" M0,-1 C-0.5529999732971191,-1 -1,-0.5519999861717224 -1,0 C-1,0.5519999861717224 -0.5529999732971191,1 0,1 C0.5529999732971191,1 1,0.5519999861717224 1,0 C1,-0.5519999861717224 0.5529999732971191,-1 0,-1z"></path></g><g opacity="1" transform="matrix(1,0,0,1,45,16)"><path fill="rgb(255,255,255)" fill-opacity="1" d=" M0,-1 C-0.5529999732971191,-1 -1,-0.5519999861717224 -1,0 C-1,0.5519999861717224 -0.5529999732971191,1 0,1 C0.5529999732971191,1 1,0.5519999861717224 1,0 C1,-0.5519999861717224 0.5529999732971191,-1 0,-1z"></path></g><g opacity="1" transform="matrix(1,0,0,1,42,37)"><path fill="rgb(255,255,255)" fill-opacity="1" d=" M0,-1 C-0.5529999732971191,-1 -1,-0.5529999732971191 -1,0 C-1,0.5529999732971191 -0.5529999732971191,1 0,1 C0.5529999732971191,1 1,0.5529999732971191 1,0 C1,-0.5529999732971191 0.5529999732971191,-1 0,-1z"></path></g><g opacity="1" transform="matrix(1,0,0,1,42,31)"><path fill="rgb(255,255,255)" fill-opacity="1" d=" M0,-1 C-0.5529999732971191,-1 -1,-0.5529999732971191 -1,0 C-1,0.5529999732971191 -0.5529999732971191,1 0,1 C0.5529999732971191,1 1,0.5529999732971191 1,0 C1,-0.5529999732971191 0.5529999732971191,-1 0,-1z"></path></g><g opacity="1" transform="matrix(1,0,0,1,42,25)"><path fill="rgb(255,255,255)" fill-opacity="1" d=" M0,-1 C-0.5529999732971191,-1 -1,-0.5519999861717224 -1,0 C-1,0.5529999732971191 -0.5529999732971191,1 0,1 C0.5529999732971191,1 1,0.5529999732971191 1,0 C1,-0.5519999861717224 0.5529999732971191,-1 0,-1z"></path></g><g opacity="1" transform="matrix(1,0,0,1,42,19)"><path fill="rgb(255,255,255)" fill-opacity="1" d=" M0,-1 C-0.5529999732971191,-1 -1,-0.5519999861717224 -1,0 C-1,0.5519999861717224 -0.5529999732971191,1 0,1 C0.5529999732971191,1 1,0.5519999861717224 1,0 C1,-0.5519999861717224 0.5529999732971191,-1 0,-1z"></path></g><g opacity="1" transform="matrix(1,0,0,1,36,25)"><path fill="rgb(255,255,255)" fill-opacity="1" d=" M0,-1 C-0.5529999732971191,-1 -1,-0.5519999861717224 -1,0 C-1,0.5529999732971191 -0.5529999732971191,1 0,1 C0.5529999732971191,1 1,0.5529999732971191 1,0 C1,-0.5519999861717224 0.5529999732971191,-1 0,-1z"></path></g><g opacity="1" transform="matrix(1,0,0,1,36,19)"><path fill="rgb(255,255,255)" fill-opacity="1" d=" M0,-1 C-0.5529999732971191,-1 -1,-0.5519999861717224 -1,0 C-1,0.5519999861717224 -0.5529999732971191,1 0,1 C0.5529999732971191,1 1,0.5519999861717224 1,0 C1,-0.5519999861717224 0.5529999732971191,-1 0,-1z"></path></g><g opacity="1" transform="matrix(1,0,0,1,42,13)"><path fill="rgb(255,255,255)" fill-opacity="1" d=" M0,-1 C-0.5529999732971191,-1 -1,-0.5519999861717224 -1,0 C-1,0.5519999861717224 -0.5529999732971191,1 0,1 C0.5529999732971191,1 1,0.5519999861717224 1,0 C1,-0.5519999861717224 0.5529999732971191,-1 0,-1z"></path></g><g opacity="1" transform="matrix(1,0,0,1,39,34)"><path fill="rgb(255,255,255)" fill-opacity="1" d=" M0,-1 C-0.5529999732971191,-1 -1,-0.5529999732971191 -1,0 C-1,0.5529999732971191 -0.5529999732971191,1 0,1 C0.5529999732971191,1 1,0.5529999732971191 1,0 C1,-0.5529999732971191 0.5529999732971191,-1 0,-1z"></path></g><g opacity="1" transform="matrix(1,0,0,1,39,28)"><path fill="rgb(255,255,255)" fill-opacity="1" d=" M0,-1 C-0.5529999732971191,-1 -1,-0.5529999732971191 -1,0 C-1,0.5529999732971191 -0.5529999732971191,1 0,1 C0.5529999732971191,1 1,0.5529999732971191 1,0 C1,-0.5529999732971191 0.5529999732971191,-1 0,-1z"></path></g><g opacity="1" transform="matrix(1,0,0,1,39,22)"><path fill="rgb(255,255,255)" fill-opacity="1" d=" M0,-1 C-0.5529999732971191,-1 -1,-0.5519999861717224 -1,0 C-1,0.5519999861717224 -0.5529999732971191,1 0,1 C0.5529999732971191,1 1,0.5519999861717224 1,0 C1,-0.5519999861717224 0.5529999732971191,-1 0,-1z"></path></g><g opacity="1" transform="matrix(1,0,0,1,33,28)"><path fill="rgb(255,255,255)" fill-opacity="1" d=" M0,-1 C-0.5529999732971191,-1 -1,-0.5529999732971191 -1,0 C-1,0.5529999732971191 -0.5529999732971191,1 0,1 C0.5529999732971191,1 1,0.5529999732971191 1,0 C1,-0.5529999732971191 0.5529999732971191,-1 0,-1z"></path></g><g opacity="1" transform="matrix(1,0,0,1,33,22)"><path fill="rgb(255,255,255)" fill-opacity="1" d=" M0,-1 C-0.5529999732971191,-1 -1,-0.5519999861717224 -1,0 C-1,0.5519999861717224 -0.5529999732971191,1 0,1 C0.5529999732971191,1 1,0.5519999861717224 1,0 C1,-0.5519999861717224 0.5529999732971191,-1 0,-1z"></path></g><g opacity="1" transform="matrix(1,0,0,1,39,16)"><path fill="rgb(255,255,255)" fill-opacity="1" d=" M0,-1 C-0.5529999732971191,-1 -1,-0.5519999861717224 -1,0 C-1,0.5519999861717224 -0.5529999732971191,1 0,1 C0.5529999732971191,1 1,0.5519999861717224 1,0 C1,-0.5519999861717224 0.5529999732971191,-1 0,-1z"></path></g><g opacity="1" transform="matrix(1,0,0,1,36,31)"><path fill="rgb(255,255,255)" fill-opacity="1" d=" M0,-1 C-0.5529999732971191,-1 -1,-0.5529999732971191 -1,0 C-1,0.5529999732971191 -0.5529999732971191,1 0,1 C0.5529999732971191,1 1,0.5529999732971191 1,0 C1,-0.5529999732971191 0.5529999732971191,-1 0,-1z"></path></g></g></g></g></svg>