<svg xmlns="http://www.w3.org/2000/svg" viewBox="0 0 50 50" width="50" height="50" preserveAspectRatio="xMidYMid meet" style="width: 100%; height: 100%; transform: translate3d(0px, 0px, 0px);"><defs><clipPath id="__lottie_element_90"><rect width="50" height="50" x="0" y="0"></rect></clipPath></defs><g clip-path="url(#__lottie_element_90)"><g transform="matrix(1,0,0,1,0,0)" opacity="1" style="display: block;"><g opacity="1" transform="matrix(1,0,0,1,25.5,24.5)"><path stroke-linecap="butt" stroke-linejoin="miter" fill-opacity="0" stroke-miterlimit="10" stroke="rgb(255,255,255)" stroke-opacity="1" stroke-width="2" d=" M-20.5,-20.5 C-20.5,-20.5 -20.5,20.5 -20.5,20.5 C-20.5,20.5 20.5,20.5 20.5,20.5"></path></g></g><g transform="matrix(1,0,0,1,0,0)" opacity="1" style="display: block;"><g opacity="1" transform="matrix(1,0,0,1,13,7)"><path fill="rgb(255,255,255)" fill-opacity="1" d=" M0,-1 C-0.5519999861717224,-1 -1,-0.5519999861717224 -1,0 C-1,0.5519999861717224 -0.5519999861717224,1 0,1 C0.5519999861717224,1 1,0.5519999861717224 1,0 C1,-0.5519999861717224 0.5519999861717224,-1 0,-1z"></path></g><g opacity="1" transform="matrix(1,0,0,1,23,7)"><path fill="rgb(255,255,255)" fill-opacity="1" d=" M0,-1 C-0.5519999861717224,-1 -1,-0.5519999861717224 -1,0 C-1,0.5519999861717224 -0.5519999861717224,1 0,1 C0.5519999861717224,1 1,0.5519999861717224 1,0 C1,-0.5519999861717224 0.5519999861717224,-1 0,-1z"></path></g><g opacity="1" transform="matrix(1,0,0,1,33,7)"><path fill="rgb(255,255,255)" fill-opacity="1" d=" M0,-1 C-0.5529999732971191,-1 -1,-0.5519999861717224 -1,0 C-1,0.5519999861717224 -0.5529999732971191,1 0,1 C0.5529999732971191,1 1,0.5519999861717224 1,0 C1,-0.5519999861717224 0.5529999732971191,-1 0,-1z"></path></g><g opacity="1" transform="matrix(1,0,0,1,43,7)"><path fill="rgb(255,255,255)" fill-opacity="1" d=" M0,-1 C-0.5529999732971191,-1 -1,-0.5519999861717224 -1,0 C-1,0.5519999861717224 -0.5529999732971191,1 0,1 C0.5529999732971191,1 1,0.5519999861717224 1,0 C1,-0.5519999861717224 0.5529999732971191,-1 0,-1z"></path></g><g opacity="1" transform="matrix(1,0,0,1,43,17)"><path fill="rgb(255,255,255)" fill-opacity="1" d=" M0,-1 C-0.5529999732971191,-1 -1,-0.5519999861717224 -1,0 C-1,0.5519999861717224 -0.5529999732971191,1 0,1 C0.5529999732971191,1 1,0.5519999861717224 1,0 C1,-0.5519999861717224 0.5529999732971191,-1 0,-1z"></path></g><g opacity="1" transform="matrix(1,0,0,1,43,27)"><path fill="rgb(255,255,255)" fill-opacity="1" d=" M0,-1 C-0.5529999732971191,-1 -1,-0.5529999732971191 -1,0 C-1,0.5529999732971191 -0.5529999732971191,1 0,1 C0.5529999732971191,1 1,0.5529999732971191 1,0 C1,-0.5529999732971191 0.5529999732971191,-1 0,-1z"></path></g><g opacity="1" transform="matrix(1,0,0,1,43,37)"><path fill="rgb(255,255,255)" fill-opacity="1" d=" M0,-1 C-0.5529999732971191,-1 -1,-0.5529999732971191 -1,0 C-1,0.5529999732971191 -0.5529999732971191,1 0,1 C0.5529999732971191,1 1,0.5529999732971191 1,0 C1,-0.5529999732971191 0.5529999732971191,-1 0,-1z"></path></g><g opacity="1" transform="matrix(1,0,0,1,13,17)"><path fill="rgb(255,255,255)" fill-opacity="1" d=" M0,-1 C-0.5519999861717224,-1 -1,-0.5519999861717224 -1,0 C-1,0.5519999861717224 -0.5519999861717224,1 0,1 C0.5519999861717224,1 1,0.5519999861717224 1,0 C1,-0.5519999861717224 0.5519999861717224,-1 0,-1z"></path></g><g opacity="1" transform="matrix(1,0,0,1,23,17)"><path fill="rgb(255,255,255)" fill-opacity="1" d=" M0,-1 C-0.5519999861717224,-1 -1,-0.5519999861717224 -1,0 C-1,0.5519999861717224 -0.5519999861717224,1 0,1 C0.5519999861717224,1 1,0.5519999861717224 1,0 C1,-0.5519999861717224 0.5519999861717224,-1 0,-1z"></path></g><g opacity="1" transform="matrix(1,0,0,1,33,17)"><path fill="rgb(255,255,255)" fill-opacity="1" d=" M0,-1 C-0.5529999732971191,-1 -1,-0.5519999861717224 -1,0 C-1,0.5519999861717224 -0.5529999732971191,1 0,1 C0.5529999732971191,1 1,0.5519999861717224 1,0 C1,-0.5519999861717224 0.5529999732971191,-1 0,-1z"></path></g><g opacity="1" transform="matrix(1,0,0,1,33,27)"><path fill="rgb(255,255,255)" fill-opacity="1" d=" M0,-1 C-0.5529999732971191,-1 -1,-0.5529999732971191 -1,0 C-1,0.5529999732971191 -0.5529999732971191,1 0,1 C0.5529999732971191,1 1,0.5529999732971191 1,0 C1,-0.5529999732971191 0.5529999732971191,-1 0,-1z"></path></g><g opacity="1" transform="matrix(1,0,0,1,33,37)"><path fill="rgb(255,255,255)" fill-opacity="1" d=" M0,-1 C-0.5529999732971191,-1 -1,-0.5529999732971191 -1,0 C-1,0.5529999732971191 -0.5529999732971191,1 0,1 C0.5529999732971191,1 1,0.5529999732971191 1,0 C1,-0.5529999732971191 0.5529999732971191,-1 0,-1z"></path></g><g opacity="1" transform="matrix(1,0,0,1,13,27)"><path fill="rgb(255,255,255)" fill-opacity="1" d=" M0,-1 C-0.5519999861717224,-1 -1,-0.5529999732971191 -1,0 C-1,0.5529999732971191 -0.5519999861717224,1 0,1 C0.5519999861717224,1 1,0.5529999732971191 1,0 C1,-0.5529999732971191 0.5519999861717224,-1 0,-1z"></path></g><g opacity="1" transform="matrix(1,0,0,1,23,27)"><path fill="rgb(255,255,255)" fill-opacity="1" d=" M0,-1 C-0.5519999861717224,-1 -1,-0.5529999732971191 -1,0 C-1,0.5529999732971191 -0.5519999861717224,1 0,1 C0.5519999861717224,1 1,0.5529999732971191 1,0 C1,-0.5529999732971191 0.5519999861717224,-1 0,-1z"></path></g><g opacity="1" transform="matrix(1,0,0,1,23,37)"><path fill="rgb(255,255,255)" fill-opacity="1" d=" M0,-1 C-0.5519999861717224,-1 -1,-0.5529999732971191 -1,0 C-1,0.5529999732971191 -0.5519999861717224,1 0,1 C0.5519999861717224,1 1,0.5529999732971191 1,0 C1,-0.5529999732971191 0.5519999861717224,-1 0,-1z"></path></g><g opacity="1" transform="matrix(1,0,0,1,13,37)"><path fill="rgb(255,255,255)" fill-opacity="1" d=" M0,-1 C-0.5519999861717224,-1 -1,-0.5529999732971191 -1,0 C-1,0.5529999732971191 -0.5519999861717224,1 0,1 C0.5519999861717224,1 1,0.5529999732971191 1,0 C1,-0.5529999732971191 0.5519999861717224,-1 0,-1z"></path></g></g><g transform="matrix(1,0,0,1,0,0)" opacity="1" style="display: block;"><g opacity="1" transform="matrix(1,0,0,1,27,23)"><path stroke-linecap="round" stroke-linejoin="round" fill-opacity="0" stroke="rgb(255,255,255)" stroke-opacity="1" stroke-width="2" d=" M-18,8 C-18,8 -4,-6 -4,-6 C-4,-6 6,4 6,4 C6,4 18,-8 18,-8"></path></g></g><g style="display: none;" transform="matrix(1,0,0,1,0,0)" opacity="1"><g opacity="1" transform="matrix(1,0,0,1,27,23)"><path stroke-linecap="round" stroke-linejoin="round" fill-opacity="0" stroke="rgb(255,255,255)" stroke-opacity="1" stroke-width="2" d=" M-18,8 C-18,8 -4,-6 -4,-6 C-4,-6 6,4 6,4 C6,4 18,-8 18,-8"></path></g></g></g></svg>
