<svg xmlns="http://www.w3.org/2000/svg" viewBox="0 0 493.1 374"><linearGradient id="a" gradientUnits="userSpaceOnUse" x1="348.6" y1="-476.662" x2="348.6" y2="-472.75" gradientTransform="matrix(1 0 0 -1 0 -328)"><stop offset="0" stop-color="#ffa959"/><stop offset=".431" stop-color="#ffb05e"/><stop offset="1" stop-color="#ffc16b"/></linearGradient><path d="M350.2 146.1c0 .9-.7 1.6-1.6 1.6s-1.6-.7-1.6-1.6c0-.9.7-1.6 1.6-1.6s1.6.8 1.6 1.6z" fill="url(#a)"/><linearGradient id="b" gradientUnits="userSpaceOnUse" x1="338.2" y1="-403.82" x2="338.2" y2="-399.907" gradientTransform="matrix(1 0 0 -1 0 -328)"><stop offset="0" stop-color="#ffa959"/><stop offset=".431" stop-color="#ffb05e"/><stop offset="1" stop-color="#ffc16b"/></linearGradient><path d="M339.8 73.3c0 .9-.7 1.6-1.6 1.6s-1.6-.7-1.6-1.6.7-1.6 1.6-1.6 1.6.7 1.6 1.6z" fill="url(#b)"/><linearGradient id="c" gradientUnits="userSpaceOnUse" x1="164.6" y1="-492.081" x2="164.6" y2="-488.168" gradientTransform="matrix(1 0 0 -1 0 -328)"><stop offset="0" stop-color="#ffa959"/><stop offset=".431" stop-color="#ffb05e"/><stop offset="1" stop-color="#ffc16b"/></linearGradient><path d="M166.2 161.5c0 .9-.7 1.6-1.6 1.6s-1.6-.7-1.6-1.6c0-.9.7-1.6 1.6-1.6s1.6.8 1.6 1.6z" fill="url(#c)"/><linearGradient id="d" gradientUnits="userSpaceOnUse" x1="146.2" y1="-425.014" x2="146.2" y2="-421.101" gradientTransform="matrix(1 0 0 -1 0 -328)"><stop offset="0" stop-color="#ffa959"/><stop offset=".431" stop-color="#ffb05e"/><stop offset="1" stop-color="#ffc16b"/></linearGradient><path d="M147.8 94.5c0 .9-.7 1.6-1.6 1.6-.9 0-1.6-.7-1.6-1.6s.7-1.6 1.6-1.6 1.6.7 1.6 1.6z" fill="url(#d)"/><linearGradient id="e" gradientUnits="userSpaceOnUse" x1="312.5" y1="-433.263" x2="312.5" y2="-431.632" gradientTransform="matrix(1 0 0 -1 0 -328)"><stop offset="0" stop-color="#ffa959"/><stop offset=".431" stop-color="#ffb05e"/><stop offset="1" stop-color="#ffc16b"/></linearGradient><circle cx="312.5" cy="104.2" r=".7" fill="url(#e)"/><linearGradient id="f" gradientUnits="userSpaceOnUse" x1="242.2" y1="-354.421" x2="242.2" y2="-351.909" gradientTransform="matrix(1 0 0 -1 0 -328)"><stop offset="0" stop-color="#ffa959"/><stop offset=".431" stop-color="#ffb05e"/><stop offset="1" stop-color="#ffc16b"/></linearGradient><path d="M243.2 24.8c0 .6-.5 1-1 1s-1-.5-1-1c0-.6.5-1 1-1s1 .4 1 1z" fill="url(#f)"/><linearGradient id="g" gradientUnits="userSpaceOnUse" x1="300.6" y1="-488.193" x2="300.6" y2="-485.681" gradientTransform="matrix(1 0 0 -1 0 -328)"><stop offset="0" stop-color="#ffa959"/><stop offset=".431" stop-color="#ffb05e"/><stop offset="1" stop-color="#ffc16b"/></linearGradient><path d="M301.6 158.6c0 .6-.5 1-1 1-.6 0-1-.5-1-1 0-.6.5-1 1-1s1 .4 1 1z" fill="url(#g)"/></svg>