<svg xmlns="http://www.w3.org/2000/svg" viewBox="0 0 493.1 374"><linearGradient id="a" gradientUnits="userSpaceOnUse" x1="9567.677" y1="831.05" x2="9590.207" y2="831.05" gradientTransform="matrix(-1 0 0 1 9785.65 -704)"><stop offset="0" stop-color="#ffa959"/><stop offset=".431" stop-color="#ffb05e"/><stop offset="1" stop-color="#ffc16b"/></linearGradient><path fill="url(#a)" d="M218 127.1l-11.2-6.6-11.4 6.6 11.3 6.5z"/><linearGradient id="b" gradientUnits="userSpaceOnUse" x1="9567.65" y1="832.7" x2="9590.222" y2="832.7" gradientTransform="matrix(-1 0 0 1 9785.65 -704)"><stop offset="0" stop-color="#ffa959"/><stop offset=".431" stop-color="#ffb05e"/><stop offset="1" stop-color="#ffc16b"/></linearGradient><path opacity=".25" fill="url(#b)" d="M218 128.7l-11.3-6.5-11.3 6.5 11.3 6.5z"/><linearGradient id="c" gradientUnits="userSpaceOnUse" x1="196.034" y1="843.74" x2="215.797" y2="835.505" gradientTransform="translate(0 -704)"><stop offset="0" stop-color="#ffa959"/><stop offset=".431" stop-color="#ffb05e"/><stop offset="1" stop-color="#ffc16b"/></linearGradient><path opacity=".65" fill="url(#c)" d="M218 128.7l-11.3 6.5-11.3-6.5 11.3 17.9z"/><linearGradient id="d" gradientUnits="userSpaceOnUse" x1="9578.95" y1="841.65" x2="9590.236" y2="841.65" gradientTransform="matrix(-1 0 0 1 9785.65 -704)"><stop offset="0" stop-color="#ffa959"/><stop offset=".431" stop-color="#ffb05e"/><stop offset="1" stop-color="#ffc16b"/></linearGradient><path opacity=".5" fill="url(#d)" d="M195.4 128.7l11.3 6.5v11.4z"/><linearGradient id="e" gradientUnits="userSpaceOnUse" x1="208.051" y1="838.543" x2="203.522" y2="813.592" gradientTransform="translate(0 -704)"><stop offset="0" stop-color="#ffa959"/><stop offset=".431" stop-color="#ffb05e"/><stop offset="1" stop-color="#ffc16b"/></linearGradient><path fill="url(#e)" d="M206.7 133.6l11.3-6.5-11.3-20.1-11.3 20.1z"/><linearGradient id="f" gradientUnits="userSpaceOnUse" x1="9578.95" y1="824.3" x2="9590.216" y2="824.3" gradientTransform="matrix(-1 0 0 1 9785.65 -704)"><stop offset="0" stop-color="#ffa959"/><stop offset=".431" stop-color="#ffb05e"/><stop offset="1" stop-color="#ffc16b"/></linearGradient><path fill="url(#f)" d="M195.4 127.1l11.3-20.1v26.6z"/><linearGradient id="g" gradientUnits="userSpaceOnUse" x1="217.974" y1="830.95" x2="195.444" y2="830.95" gradientTransform="translate(0 -704)"><stop offset="0" stop-color="#ffa959"/><stop offset=".431" stop-color="#ffb05e"/><stop offset="1" stop-color="#ffc16b"/></linearGradient><path opacity=".67" fill="url(#g)" d="M206.7 133.6l-11.3-6.5 11.3-6.8 11.3 6.8z"/></svg>