<svg version="1.1" id="Layer_1" xmlns="http://www.w3.org/2000/svg" xmlns:xlink="http://www.w3.org/1999/xlink" x="0" y="0" viewBox="0 0 493.1 374" xml:space="preserve"><style>.st9{enable-background:new}.st10{fill:#f28522}</style><g class="st9"><path class="st10" d="M266.2 172.2l-1.7-1.7-.1-.1c-1-1.1-1.5-2.5-1.5-4.2l1.7 1.7c-.1 1.7.4 3 1.5 4.2l.1.1zm-1.6-4.3l-1.7-1.7.1-5.4 1.7 1.8zm12-17.3l-1.7-1.7c1.9-.8 3.4-1.8 4.6-3l1.7 1.7c-1.2 1.2-2.8 2.2-4.6 3z"/><path class="st10" d="M279.2 136.4l1.7 1.7c.2.3.5.5.7.8 1 1.3 1.4 2.8 1.4 4.6 0 1.5-.7 2.8-1.8 4.1l-1.7-1.7c1.2-1.2 1.8-2.6 1.8-4.1.1-1.8-.4-3.3-1.4-4.6-.2-.3-.4-.6-.7-.8zm9.6-7.9l1.7 1.7c-2.7-2.8-7.1-4.9-13.1-6.3l-1.7-1.7c6 1.4 10.4 3.5 13.1 6.3zm-23.7 22.9l-1.7-1.7.5-18.6 1.8 1.7z"/><path class="st10" d="M246.9 154.8l-1.7-1.7c-1.4-1.4-2.1-3-2-4.7 0-1.5.6-2.7 1.7-3.9 1.1-1.1 2.4-1.7 4-1.7 1.2 0 2.3.4 3.2 1.1 1.9 1.6 3.8 2.8 5.5 3.8 1.8.9 3.7 1.5 5.8 1.9l1.7 1.7c-2.1-.3-4-.9-5.8-1.9-1.8-.9-3.6-2.2-5.5-3.8-.9-.8-2-1.1-3.2-1.1-1.5 0-2.8.6-4 1.7-1.1 1.1-1.7 2.4-1.7 3.9-.1 1.8.6 3.3 2 4.7zm43.6-55.2l1.7 1.7c-.2-.2-.5-.5-.8-.7l-1.7-1.7c.3.3.6.5.8.7zm-30.3 18.7l-1.7-1.7c1.3 1.3 3.2 2.3 5.8 3.1l1.7 1.7c-2.6-.8-4.5-1.8-5.8-3.1z"/><path class="st10" d="M278.3 94.7l-1.7-1.7c5.4 1 9.8 2.9 13.2 5.9l1.7 1.7c-3.5-2.9-7.9-4.9-13.2-5.9zM266 121.4l-1.7-1.8.5-15.8 1.7 1.7zm.8-27l-1.7-1.8.1-3.1 1.7 1.7zm8.3-9.2l1.7 1.7c-1-1-2.3-1.6-3.9-1.6s-3.1.6-4.2 1.7-1.7 2.5-1.8 4.1l-1.7-1.7c.1-1.6.7-3 1.8-4.1 1.1-1.1 2.6-1.7 4.2-1.7 1.6.1 2.9.6 3.9 1.6z"/><path class="st10" d="M251.6 126.3l-1.7-1.7c-3.2-3.2-4.7-7.4-4.5-12.7.2-5.3 2.1-9.6 5.7-13 3.7-3.4 8.3-5.5 14-6.2l1.7 1.7c-5.7.8-10.4 2.8-14 6.2-3.7 3.4-5.6 7.7-5.7 13-.2 5.3 1.3 9.5 4.5 12.7z"/><path class="st10" d="M290.6 130.4c2.7 2.8 4 7 3.8 12.4-.2 4.9-1.9 9-5.3 12.4s-7.7 5.6-12.9 6.8l-.2 5.9c-.1 1.7-.7 3-1.8 4.2-1.2 1.1-2.6 1.7-4.2 1.7s-2.9-.6-4-1.7c-1-1.1-1.5-2.5-1.5-4.2l.2-5.3c-3.4-.3-6.5-1.1-9.3-2.2-2.8-1.1-5.5-2.9-8.1-5.1-1.7-1.5-2.5-3.2-2.4-5.1 0-1.5.6-2.7 1.7-3.9 1.1-1.1 2.4-1.7 4-1.7 1.2 0 2.3.4 3.2 1.1 1.9 1.6 3.8 2.8 5.5 3.8 1.8.9 3.7 1.5 5.8 1.9l.6-18.6c-12.7-2.3-18.9-8.7-18.6-19.2.2-5.3 2.1-9.6 5.7-13 3.7-3.4 8.3-5.5 14-6.2l.1-3.2c.1-1.6.7-3 1.8-4.1 1.1-1.1 2.6-1.7 4.2-1.7s2.9.6 4 1.7c1 1.1 1.5 2.5 1.5 4.1l-.1 3.5c5.4 1 9.8 2.9 13.2 5.9 1.8 1.5 2.7 3.1 2.6 5.1 0 1.5-.6 2.7-1.7 3.9-1.1 1.1-2.4 1.7-3.9 1.7-.9 0-1.8-.3-2.5-.9-1.9-1.6-4.5-3-8-4.1l-.5 17.6c6 1.5 10.4 3.7 13.1 6.5zm-24.6-9l.5-15.8c-2.6.5-4.6 1.4-6 2.8-1.4 1.3-2.1 3-2.2 4.9-.1 2.1.6 3.8 1.9 5.1 1.3 1.2 3.2 2.2 5.8 3m15.1 26.1c1.2-1.2 1.8-2.6 1.8-4.1.1-1.8-.4-3.3-1.4-4.6s-2.5-2.4-4.6-3.3l-.5 15c2-.7 3.6-1.7 4.7-3"/><g class="st9"><defs><path id="SVGID_8_" d="M290.6 130.4c2.7 2.8 4 7 3.8 12.4-.2 4.9-1.9 9-5.3 12.4s-7.7 5.6-12.9 6.8l-.2 5.9c-.1 1.7-.7 3-1.8 4.2-1.2 1.1-2.6 1.7-4.2 1.7s-2.9-.6-4-1.7c-1-1.1-1.5-2.5-1.5-4.2l.2-5.3c-3.4-.3-6.5-1.1-9.3-2.2-2.8-1.1-5.5-2.9-8.1-5.1-1.7-1.5-2.5-3.2-2.4-5.1 0-1.5.6-2.7 1.7-3.9 1.1-1.1 2.4-1.7 4-1.7 1.2 0 2.3.4 3.2 1.1 1.9 1.6 3.8 2.8 5.5 3.8 1.8.9 3.7 1.5 5.8 1.9l.6-18.6c-12.7-2.3-18.9-8.7-18.6-19.2.2-5.3 2.1-9.6 5.7-13 3.7-3.4 8.3-5.5 14-6.2l.1-3.2c.1-1.6.7-3 1.8-4.1 1.1-1.1 2.6-1.7 4.2-1.7s2.9.6 4 1.7c1 1.1 1.5 2.5 1.5 4.1l-.1 3.5c5.4 1 9.8 2.9 13.2 5.9 1.8 1.5 2.7 3.1 2.6 5.1 0 1.5-.6 2.7-1.7 3.9-1.1 1.1-2.4 1.7-3.9 1.7-.9 0-1.8-.3-2.5-.9-1.9-1.6-4.5-3-8-4.1l-.5 17.6c6 1.5 10.4 3.7 13.1 6.5zm-24.6-9l.5-15.8c-2.6.5-4.6 1.4-6 2.8-1.4 1.3-2.1 3-2.2 4.9-.1 2.1.6 3.8 1.9 5.1 1.3 1.2 3.2 2.2 5.8 3m15.1 26.1c1.2-1.2 1.8-2.6 1.8-4.1.1-1.8-.4-3.3-1.4-4.6s-2.5-2.4-4.6-3.3l-.5 15c2-.7 3.6-1.7 4.7-3"/></defs><clipPath id="SVGID_9_"><use xlink:href="#SVGID_8_" overflow="visible"/></clipPath><g clip-path="url(#SVGID_9_)"><path fill="#ffa959" d="M300.5 79.9h-65.1l-2.9 94.9h65.1l2.9-94.9"/></g></g></g></svg>