<svg xmlns="http://www.w3.org/2000/svg" viewBox="0 0 50 50" width="50" height="50" preserveAspectRatio="xMidYMid meet" style="width: 100%; height: 100%; transform: translate3d(0px, 0px, 0px);"><defs><clipPath id="__lottie_element_34"><rect width="50" height="50" x="0" y="0"></rect></clipPath><filter id="__lottie_element_39" filterUnits="objectBoundingBox" x="0%" y="0%" width="100%" height="100%"><feComponentTransfer in="SourceGraphic"><feFuncA type="table" tableValues="1.0 0.0"></feFuncA></feComponentTransfer></filter><mask id="__lottie_element_38" mask-type="alpha"><g filter="url(#__lottie_element_39)"><rect width="50" height="50" x="0" y="0" fill="#ffffff" opacity="0"></rect><g transform="matrix(1,0,0,1,0,0)" opacity="1" style="display: block;"><g opacity="1" transform="matrix(1,0,0,1,25,25)"><path fill="rgb(255,255,255)" fill-opacity="1" d=" M9,0 C9,4.9730000495910645 4.9730000495910645,9 0,9 C-4.9710001945495605,9 -9,4.9730000495910645 -9,0 C-9,-4.9679999351501465 -4.9710001945495605,-9 0,-9 C4.9730000495910645,-9 9,-4.9679999351501465 9,0z"></path></g><g opacity="1" transform="matrix(1,0,0,1,6,40)"><path fill="rgb(255,255,255)" fill-opacity="1" d=" M0,-5 C-2.760999917984009,-5 -5,-2.76200008392334 -5,0 C-5,2.76200008392334 -2.760999917984009,5 0,5 C2.760999917984009,5 5,2.76200008392334 5,0 C5,-2.76200008392334 2.760999917984009,-5 0,-5z"></path></g><g opacity="1" transform="matrix(1,0,0,1,35,44)"><path fill="rgb(255,255,255)" fill-opacity="1" d=" M0,-5 C-2.76200008392334,-5 -5,-2.76200008392334 -5,0 C-5,2.76200008392334 -2.76200008392334,5 0,5 C2.76200008392334,5 5,2.76200008392334 5,0 C5,-2.76200008392334 2.76200008392334,-5 0,-5z"></path></g><g opacity="1" transform="matrix(1,0,0,1,44,29)"><path fill="rgb(255,255,255)" fill-opacity="1" d=" M0,-5 C-2.76200008392334,-5 -5,-2.76200008392334 -5,0 C-5,2.76200008392334 -2.76200008392334,5 0,5 C2.76200008392334,5 5,2.76200008392334 5,0 C5,-2.76200008392334 2.76200008392334,-5 0,-5z"></path></g><g opacity="1" transform="matrix(1,0,0,1,32,6)"><path fill="rgb(255,255,255)" fill-opacity="1" d=" M0,-5 C-2.76200008392334,-5 -5,-2.760999917984009 -5,0 C-5,2.760999917984009 -2.76200008392334,5 0,5 C2.76200008392334,5 5,2.760999917984009 5,0 C5,-2.760999917984009 2.76200008392334,-5 0,-5z"></path></g><g opacity="1" transform="matrix(1,0,0,1,6,6)"><path fill="rgb(255,255,255)" fill-opacity="1" d=" M0,-5 C-2.760999917984009,-5 -5,-2.760999917984009 -5,0 C-5,2.760999917984009 -2.760999917984009,5 0,5 C2.760999917984009,5 5,2.760999917984009 5,0 C5,-2.760999917984009 2.760999917984009,-5 0,-5z"></path></g></g></g></mask></defs><g clip-path="url(#__lottie_element_34)"><g transform="matrix(1,0,0,1,0,0)" opacity="1" style="display: block;"><g opacity="1" transform="matrix(1,0,0,1,6,40)"><path stroke-linecap="round" stroke-linejoin="miter" fill-opacity="0" stroke-miterlimit="10" stroke="rgb(255,255,255)" stroke-opacity="1" stroke-width="2" d=" M0,-5 C-2.760999917984009,-5 -5,-2.76200008392334 -5,0 C-5,2.76200008392334 -2.760999917984009,5 0,5 C2.760999917984009,5 5,2.76200008392334 5,0 C5,-2.76200008392334 2.760999917984009,-5 0,-5z"></path></g><g opacity="1" transform="matrix(1,0,0,1,35,44)"><path stroke-linecap="round" stroke-linejoin="miter" fill-opacity="0" stroke-miterlimit="10" stroke="rgb(255,255,255)" stroke-opacity="1" stroke-width="2" d=" M0,-5 C-2.76200008392334,-5 -5,-2.76200008392334 -5,0 C-5,2.76200008392334 -2.76200008392334,5 0,5 C2.76200008392334,5 5,2.76200008392334 5,0 C5,-2.76200008392334 2.76200008392334,-5 0,-5z"></path></g><g opacity="1" transform="matrix(1,0,0,1,44,29)"><path stroke-linecap="round" stroke-linejoin="miter" fill-opacity="0" stroke-miterlimit="10" stroke="rgb(255,255,255)" stroke-opacity="1" stroke-width="2" d=" M0,-5 C-2.76200008392334,-5 -5,-2.76200008392334 -5,0 C-5,2.76200008392334 -2.76200008392334,5 0,5 C2.76200008392334,5 5,2.76200008392334 5,0 C5,-2.76200008392334 2.76200008392334,-5 0,-5z"></path></g><g opacity="1" transform="matrix(1,0,0,1,32,6)"><path stroke-linecap="round" stroke-linejoin="miter" fill-opacity="0" stroke-miterlimit="10" stroke="rgb(255,255,255)" stroke-opacity="1" stroke-width="2" d=" M0,-5 C-2.76200008392334,-5 -5,-2.760999917984009 -5,0 C-5,2.760999917984009 -2.76200008392334,5 0,5 C2.76200008392334,5 5,2.760999917984009 5,0 C5,-2.760999917984009 2.76200008392334,-5 0,-5z"></path></g><g opacity="1" transform="matrix(1,0,0,1,6,6)"><path stroke-linecap="round" stroke-linejoin="miter" fill-opacity="0" stroke-miterlimit="10" stroke="rgb(255,255,255)" stroke-opacity="1" stroke-width="2" d=" M0,-5 C-2.760999917984009,-5 -5,-2.760999917984009 -5,0 C-5,2.760999917984009 -2.760999917984009,5 0,5 C2.760999917984009,5 5,2.760999917984009 5,0 C5,-2.760999917984009 2.760999917984009,-5 0,-5z"></path></g></g><g mask="url(#__lottie_element_38)" style="display: block;"><g transform="matrix(1,0,0,1,0,0)" opacity="1"><g opacity="1" transform="matrix(1,0,0,1,15.5,32.5)"><path stroke-linecap="round" stroke-linejoin="miter" fill-opacity="0" stroke-miterlimit="10" stroke="rgb(255,255,255)" stroke-opacity="1" stroke-width="2" d=" M9.5,-7.5 C9.5,-7.5 -9.5,7.5 -9.5,7.5"></path></g><g opacity="1" transform="matrix(1,0,0,1,30,34.5)"><path stroke-linecap="round" stroke-linejoin="miter" fill-opacity="0" stroke-miterlimit="10" stroke="rgb(255,255,255)" stroke-opacity="1" stroke-width="2" d=" M-5,-9.49899959564209 C-5,-9.49899959564209 5,9.49899959564209 5,9.49899959564209"></path></g><g opacity="1" transform="matrix(1,0,0,1,34.5,27)"><path stroke-linecap="round" stroke-linejoin="miter" fill-opacity="0" stroke-miterlimit="10" stroke="rgb(255,255,255)" stroke-opacity="1" stroke-width="2" d=" M-9.5,-2 C-9.5,-2 9.5,2 9.5,2"></path></g><g opacity="1" transform="matrix(1,0,0,1,28.5,15.5)"><path stroke-linecap="round" stroke-linejoin="miter" fill-opacity="0" stroke-miterlimit="10" stroke="rgb(255,255,255)" stroke-opacity="1" stroke-width="2" d=" M-3.5,9.5 C-3.5,9.5 3.5,-9.5 3.5,-9.5"></path></g><g opacity="1" transform="matrix(1,0,0,1,15.5,15.5)"><path stroke-linecap="round" stroke-linejoin="miter" fill-opacity="0" stroke-miterlimit="10" stroke="rgb(255,255,255)" stroke-opacity="1" stroke-width="2" d=" M9.5,9.5 C9.5,9.5 -9.5,-9.5 -9.5,-9.5"></path></g></g></g><g transform="matrix(1,0,0,1,0,0)" opacity="1" style="display: block;"><g opacity="1" transform="matrix(1,0,0,1,25,25)"><path stroke-linecap="round" stroke-linejoin="miter" fill-opacity="0" stroke-miterlimit="10" stroke="rgb(255,255,255)" stroke-opacity="1" stroke-width="2" d=" M9,0 C9,4.9730000495910645 4.9730000495910645,9 0,9 C-4.9710001945495605,9 -9,4.9730000495910645 -9,0 C-9,-4.9679999351501465 -4.9710001945495605,-9 0,-9 C4.9730000495910645,-9 9,-4.9679999351501465 9,0z"></path></g></g></g></svg>