<svg width="120" height="40" xmlns="http://www.w3.org/2000/svg"><g fill="none"><path d="M110.135 0H9.535c-.367 0-.73 0-1.095.002-.306.002-.61.008-.919.013C6.85.022 6.18.082 5.517.19a6.665 6.665 0 00-1.9.627A6.438 6.438 0 00.193 5.521a12.993 12.993 0 00-.179 2.002c-.01.307-.01.615-.015.921v23.114c.005.311.006.612.015.922.008.671.068 1.34.18 2.002.11.663.32 1.305.624 1.905a6.2 6.2 0 001.179 1.614 6.282 6.282 0 001.618 1.179 6.7 6.7 0 001.901.63c.663.11 1.333.168 2.004.177A133.105 133.105 0 009.534 40h100.6c.359 0 .724 0 1.084-.002.304 0 .617-.004.922-.01a13.27 13.27 0 002-.178 6.805 6.805 0 001.908-.63 6.293 6.293 0 001.617-1.18 6.403 6.403 0 001.182-1.613c.302-.6.51-1.242.619-1.905.111-.661.173-1.33.185-2.002.004-.31.004-.611.004-.922.008-.363.008-.724.008-1.093V9.536c0-.366 0-.73-.008-1.092 0-.306 0-.614-.004-.92a13.57 13.57 0 00-.185-2.003 6.648 6.648 0 00-.619-1.903 6.469 6.469 0 00-2.799-2.8 6.77 6.77 0 00-1.908-.627c-.661-.11-1.33-.17-2-.177-.305-.004-.618-.01-.922-.012-.36-.002-.725-.002-1.084-.002z" fill="#A6A6A6"/><path d="M8.445 39.125c-.305 0-.602-.004-.904-.01a12.696 12.696 0 01-1.87-.164 5.884 5.884 0 01-1.656-.548 5.406 5.406 0 01-1.397-1.016 5.321 5.321 0 01-1.02-1.397 5.722 5.722 0 01-.544-1.657 12.414 12.414 0 01-.166-1.875c-.007-.21-.015-.913-.015-.913v-23.1s.009-.692.015-.895a12.37 12.37 0 01.165-1.872 5.756 5.756 0 01.544-1.662c.26-.518.603-.99 1.015-1.398A5.565 5.565 0 015.668 1.05c.62-.1 1.247-.155 1.875-.163l.902-.012h102.769l.913.013a12.37 12.37 0 011.858.162 5.932 5.932 0 011.671.548 5.589 5.589 0 012.415 2.42 5.74 5.74 0 01.535 1.649c.104.624.162 1.255.174 1.887.003.283.003.588.003.89.008.375.008.732.008 1.092v20.929c0 .363 0 .718-.008 1.075 0 .325 0 .623-.004.93-.011.62-.069 1.24-.171 1.853a5.716 5.716 0 01-.54 1.67 5.47 5.47 0 01-1.015 1.386 5.414 5.414 0 01-1.4 1.022 5.855 5.855 0 01-1.668.55c-.618.101-1.243.156-1.869.163-.293.007-.599.011-.897.011l-1.084.002-101.69-.002z" fill="#000"/><g fill="#fff"><path d="M24.769 20.3a4.949 4.949 0 012.357-4.151 5.066 5.066 0 00-3.992-2.158c-1.679-.176-3.307 1.005-4.163 1.005-.872 0-2.19-.988-3.608-.958a5.315 5.315 0 00-4.473 2.727c-1.934 3.349-.491 8.27 1.361 10.976.927 1.326 2.01 2.806 3.428 2.754 1.387-.058 1.905-.885 3.58-.885 1.658 0 2.144.885 3.59.851 1.489-.024 2.426-1.33 3.32-2.669a10.962 10.962 0 001.52-3.092 4.782 4.782 0 01-2.92-4.4zm-2.732-8.09a4.873 4.873 0 001.115-3.49 4.957 4.957 0 00-3.208 1.66 4.636 4.636 0 00-1.144 3.36 4.1 4.1 0 003.237-1.53z"/><path fill-rule="evenodd" clip-rule="evenodd" d="M37.569 27.14h4.733l1.136 3.356h2.039l-4.483-12.418H38.91l-4.484 12.418h2.005l1.137-3.356zm4.242-1.55h-3.752l1.85-5.446h.052l1.85 5.447zm9.57 5c2.273 0 3.779-1.807 3.779-4.62 0-2.806-1.515-4.622-3.813-4.622a3.212 3.212 0 00-2.883 1.6h-.034v-1.506h-1.799v12.05h1.859v-4.485h.043a3.069 3.069 0 002.848 1.584zm-.524-7.658c1.445 0 2.392 1.205 2.392 3.038 0 1.85-.947 3.046-2.392 3.046-1.42 0-2.375-1.222-2.375-3.046 0-1.808.955-3.038 2.375-3.038zm10.489 7.658c2.273 0 3.779-1.807 3.779-4.62 0-2.806-1.515-4.622-3.813-4.622a3.212 3.212 0 00-2.883 1.6h-.034v-1.506h-1.799v12.05h1.859v-4.485h.043a3.069 3.069 0 002.848 1.584zm-.524-7.658c1.445 0 2.392 1.205 2.392 3.038 0 1.85-.947 3.046-2.392 3.046-1.42 0-2.375-1.222-2.375-3.046 0-1.808.955-3.038 2.375-3.038z"/><path d="M71.71 27.036c.138 1.232 1.334 2.04 2.97 2.04 1.566 0 2.693-.808 2.693-1.919 0-.964-.68-1.54-2.29-1.936l-1.609-.388c-2.28-.55-3.339-1.617-3.339-3.348 0-2.142 1.867-3.614 4.519-3.614 2.624 0 4.423 1.472 4.483 3.614h-1.876c-.112-1.239-1.136-1.987-2.634-1.987-1.497 0-2.521.757-2.521 1.858 0 .878.654 1.395 2.255 1.79l1.368.336c2.548.603 3.606 1.626 3.606 3.443 0 2.323-1.85 3.778-4.793 3.778-2.754 0-4.614-1.42-4.734-3.667h1.902zM83.346 19.3v2.142h1.722v1.472h-1.722v4.991c0 .776.345 1.137 1.102 1.137.204-.004.408-.018.611-.043v1.463c-.34.063-.686.092-1.032.086-1.833 0-2.548-.689-2.548-2.445v-5.189h-1.316v-1.472h1.316V19.3h1.867z"/><path fill-rule="evenodd" clip-rule="evenodd" d="M90.359 21.331c-2.616 0-4.294 1.79-4.294 4.639 0 2.856 1.661 4.638 4.294 4.638 2.634 0 4.295-1.782 4.295-4.638 0-2.849-1.67-4.639-4.295-4.639zm0 1.531c1.506 0 2.401 1.154 2.401 3.108 0 1.962-.895 3.106-2.401 3.106-1.506 0-2.4-1.144-2.4-3.106 0-1.946.894-3.108 2.4-3.108z"/><path d="M96.186 21.442h1.772v1.541h.043a2.16 2.16 0 012.178-1.636c.214 0 .428.023.637.07v1.738a2.598 2.598 0 00-.835-.112 1.873 1.873 0 00-1.937 2.083v5.37h-1.858v-9.054z"/><path fill-rule="evenodd" clip-rule="evenodd" d="M105.486 30.608c2.047 0 3.648-1.127 3.898-2.771h-1.765a2.048 2.048 0 01-2.09 1.273 2.357 2.357 0 01-2.436-2.564v-.112h6.395v-.637c0-2.745-1.576-4.466-4.08-4.466-2.547 0-4.191 1.842-4.191 4.682 0 2.83 1.635 4.595 4.269 4.595zm2.142-5.473h-4.526a2.294 2.294 0 012.305-2.298 2.177 2.177 0 012.221 2.298z"/></g><g fill="#fff"><path fill-rule="evenodd" clip-rule="evenodd" d="M39.932 9.549a2.639 2.639 0 00-2.106-.818h-2.155v5.967h2.155c1.778 0 2.808-1.096 2.808-3.002a2.639 2.639 0 00-.702-2.147zm-2.21 4.305h-1.124v-4.28h1.125a1.88 1.88 0 011.967 2.134 1.875 1.875 0 01-1.967 2.146zm4.958-3.426a2.133 2.133 0 00-1 2.016 2.132 2.132 0 003.25 2.02 2.134 2.134 0 00.998-2.02 2.134 2.134 0 00-3.249-2.016zm1.126.47c.77 0 1.208.57 1.208 1.546 0 .98-.439 1.55-1.208 1.55-.773 0-1.207-.566-1.207-1.55 0-.976.434-1.547 1.207-1.547z"/><path d="M51.573 14.698h-.922l-.93-3.317h-.07l-.927 3.317h-.913l-1.242-4.503h.902l.806 3.436h.067l.925-3.436h.853l.926 3.436h.07l.803-3.436h.889l-1.237 4.503zm2.281-4.503h.855v.715h.066c.231-.526.77-.849 1.344-.802a1.465 1.465 0 011.559 1.675v2.915h-.889v-2.692c0-.724-.314-1.084-.972-1.084a1.033 1.033 0 00-1.075 1.142v2.634h-.888v-4.503zm5.24-1.758h.888v6.26h-.888v-6.26z"/><path fill-rule="evenodd" clip-rule="evenodd" d="M62.216 10.428a2.133 2.133 0 00-.998 2.016 2.134 2.134 0 104.247 0 2.134 2.134 0 00-3.249-2.016zm1.127.47c.77 0 1.208.57 1.208 1.546 0 .98-.439 1.55-1.208 1.55-.773 0-1.207-.566-1.207-1.55 0-.976.434-1.547 1.207-1.547zm4.733 1.182c-1.072.066-1.675.534-1.675 1.344a1.36 1.36 0 001.5 1.348 1.515 1.515 0 001.353-.707h.07v.633h.856V11.62c0-.951-.637-1.513-1.765-1.513-1.022 0-1.75.496-1.84 1.27h.86c.099-.319.442-.501.939-.501.607 0 .921.268.921.744v.389l-1.22.07zm1.22.583v.377a1.06 1.06 0 01-1.167.984c-.483 0-.835-.236-.835-.641 0-.397.282-.608.902-.65l1.1-.07zm3.921-2.543c-1.137 0-1.869.901-1.869 2.324 0 1.427.724 2.328 1.87 2.328a1.563 1.563 0 001.413-.786h.07v.712h.852V8.437h-.888v2.473h-.067a1.484 1.484 0 00-1.38-.79zm.252 3.854c-.753 0-1.203-.575-1.203-1.53 0-.947.455-1.526 1.203-1.526.744 0 1.212.592 1.212 1.53 0 .943-.463 1.526-1.212 1.526zm6.759-3.546a2.133 2.133 0 00-.998 2.016 2.132 2.132 0 003.25 2.02 2.134 2.134 0 00.997-2.02 2.134 2.134 0 00-3.249-2.016zm1.127.47c.77 0 1.208.57 1.208 1.546 0 .98-.439 1.55-1.208 1.55-.773 0-1.207-.566-1.207-1.55 0-.976.434-1.547 1.207-1.547z"/><path d="M84.67 10.195h.855v.715h.066c.231-.526.77-.849 1.344-.802a1.465 1.465 0 011.559 1.675v2.915h-.89v-2.692c0-.724-.314-1.084-.97-1.084a1.033 1.033 0 00-1.076 1.142v2.634h-.889v-4.503zm8.845-1.121v1.141h.976v.749h-.976v2.315c0 .472.194.679.637.679.113 0 .226-.008.339-.021v.74c-.16.029-.322.044-.484.046-.988 0-1.382-.348-1.382-1.216v-2.543h-.714v-.749h.714V9.074h.89zm2.19-.637h.88v2.481h.07a1.386 1.386 0 011.374-.806 1.483 1.483 0 011.55 1.679v2.907h-.889V12.01c0-.72-.335-1.084-.963-1.084a1.052 1.052 0 00-1.134 1.142v2.63h-.888V8.437z"/><path fill-rule="evenodd" clip-rule="evenodd" d="M102.81 14.785a1.828 1.828 0 001.951-1.303h-.855a1.078 1.078 0 01-1.071.546 1.19 1.19 0 01-1.2-1.29v-.05h3.18v-.31c0-1.414-.756-2.27-2.009-2.27a2.077 2.077 0 00-2.076 2.352 2.045 2.045 0 002.08 2.325zm1.1-2.754h-2.275a1.153 1.153 0 011.166-1.167 1.086 1.086 0 011.109 1.167z"/></g></g></svg>