<svg xmlns="http://www.w3.org/2000/svg" viewBox="0 0 50 50" width="50" height="50" preserveAspectRatio="xMidYMid meet" style="width: 100%; height: 100%; transform: translate3d(0px, 0px, 0px);"><defs><clipPath id="__lottie_element_127"><rect width="50" height="50" x="0" y="0"></rect></clipPath></defs><g clip-path="url(#__lottie_element_127)"><g transform="matrix(1,0,0,1,0,0)" opacity="1" style="display: block;"><g opacity="1" transform="matrix(1,0,0,1,25,23)"><path stroke-linecap="butt" stroke-linejoin="round" fill-opacity="0" stroke="rgb(255,255,255)" stroke-opacity="1" stroke-width="2" d=" M17,14 C17,14 -17,14 -17,14 C-18.656999588012695,14 -20,12.656999588012695 -20,11 C-20,11 -20,-11 -20,-11 C-20,-12.656999588012695 -18.656999588012695,-14 -17,-14 C-17,-14 17,-14 17,-14 C18.656999588012695,-14 20,-12.656999588012695 20,-11 C20,-11 20,11 20,11 C20,12.656999588012695 18.656999588012695,14 17,14z"></path></g><g opacity="1" transform="matrix(1,0,0,1,25,39)"><path stroke-linecap="butt" stroke-linejoin="round" fill-opacity="0" stroke="rgb(255,255,255)" stroke-opacity="1" stroke-width="2" d=" M-23,-2 C-23,-2 23,-2 23,-2 C23,0.20900000631809235 21.208999633789062,2 19,2 C19,2 -19,2 -19,2 C-21.208999633789062,2 -23,0.20900000631809235 -23,-2z"></path></g></g></g></svg>