<svg xmlns="http://www.w3.org/2000/svg" viewBox="0 0 493.1 374"><linearGradient id="a" gradientUnits="userSpaceOnUse" x1="9538.851" y1="769.15" x2="9573.051" y2="769.15" gradientTransform="matrix(-1 0 0 1 9785.65 -704)"><stop offset="0" stop-color="#ffa959"/><stop offset=".431" stop-color="#ffb05e"/><stop offset="1" stop-color="#ffc16b"/></linearGradient><path fill="url(#a)" d="M246.8 65.2l-17-10-17.2 10 17.1 9.9z"/><linearGradient id="b" gradientUnits="userSpaceOnUse" x1="9538.787" y1="771.6" x2="9573.05" y2="771.6" gradientTransform="matrix(-1 0 0 1 9785.65 -704)"><stop offset="0" stop-color="#ffa959"/><stop offset=".431" stop-color="#ffb05e"/><stop offset="1" stop-color="#ffc16b"/></linearGradient><path opacity=".25" fill="url(#b)" d="M246.9 67.6l-17.1-9.9-17.2 9.9 17.1 9.9z"/><linearGradient id="c" gradientUnits="userSpaceOnUse" x1="213.522" y1="788.378" x2="243.523" y2="775.878" gradientTransform="translate(0 -704)"><stop offset="0" stop-color="#ffa959"/><stop offset=".431" stop-color="#ffb05e"/><stop offset="1" stop-color="#ffc16b"/></linearGradient><path opacity=".65" fill="url(#c)" d="M246.9 67.6l-17.2 9.9-17.1-9.9 17.1 27.2z"/><linearGradient id="d" gradientUnits="userSpaceOnUse" x1="9555.918" y1="785.2" x2="9573.05" y2="785.2" gradientTransform="matrix(-1 0 0 1 9785.65 -704)"><stop offset="0" stop-color="#ffa959"/><stop offset=".431" stop-color="#ffb05e"/><stop offset="1" stop-color="#ffc16b"/></linearGradient><path opacity=".5" fill="url(#d)" d="M212.6 67.6l17.1 9.9v17.3z"/><linearGradient id="e" gradientUnits="userSpaceOnUse" x1="231.637" y1="779.868" x2="224.762" y2="741.993" gradientTransform="translate(0 -704)"><stop offset="0" stop-color="#ffa959"/><stop offset=".431" stop-color="#ffb05e"/><stop offset="1" stop-color="#ffc16b"/></linearGradient><path fill="url(#e)" d="M229.7 75.1l17.1-9.9-17.1-30.4-17.1 30.4z"/><linearGradient id="f" gradientUnits="userSpaceOnUse" x1="9555.918" y1="758.95" x2="9573.018" y2="758.95" gradientTransform="matrix(-1 0 0 1 9785.65 -704)"><stop offset="0" stop-color="#ffa959"/><stop offset=".431" stop-color="#ffb05e"/><stop offset="1" stop-color="#ffc16b"/></linearGradient><path fill="url(#f)" d="M212.6 65.2l17.1-30.4v40.3z"/><linearGradient id="g" gradientUnits="userSpaceOnUse" x1="246.8" y1="769" x2="212.6" y2="769" gradientTransform="translate(0 -704)"><stop offset="0" stop-color="#ffa959"/><stop offset=".431" stop-color="#ffb05e"/><stop offset="1" stop-color="#ffc16b"/></linearGradient><path opacity=".67" fill="url(#g)" d="M229.7 75.1l-17.1-9.9 17.1-10.3 17.1 10.3z"/></svg>